<?xml version="1.0" encoding="UTF-8"?>
<svg xmlns="http://www.w3.org/2000/svg" viewBox="0 0 2572 275.74" preserveAspectRatio="none">
  <defs>
    <style>
      .cls-1 {
        fill: #ff6c1f;
      }

      .cls-2 {
        fill: #fff9f9;
      }

      .cls-3 {
        fill: #3a4384;
      }
    </style>
  </defs>
  <g id="Layer_1" data-name="Layer 1"/>
  <g id="Layer_2" data-name="Layer 2">
    <g id="Layer_1-2" data-name="Layer 1">
      <g>
        <path class="cls-3" d="M1673.8,218.45c-339,43-425-158.6-813.7-111.9-161.2,19.4-134.2,52.6-357.3,86.1-149.97,22.5-324.09,46.77-502.8-.09v83.19H2572v-103.89c-82.32-25.88-174.23-101.93-360.1-112.71-250.1-14.5-274.6,125.9-538.1,159.3Z"/>
        <path class="cls-2" d="M2160.4,18.85c-237.6-13.8-260.9,119.6-511.2,151.3-322.1,40.8-403.8-150.7-773-106.3-153.2,18.4-127.5,50-339.5,81.8C377.73,169.51,190.26,195.48,0,127.32v65.24c178.71,46.86,352.83,22.59,502.8,.09,223.1-33.5,196.1-66.7,357.3-86.1,388.7-46.7,474.7,154.9,813.7,111.9,263.5-33.4,288-173.8,538.1-159.3,185.87,10.78,277.78,86.83,360.1,112.71v-39.55c-103.68,17.48-182.48-100.15-411.6-113.47Z"/>
        <path class="cls-1" d="M0,0V127.32c190.26,68.17,377.73,42.19,536.7,18.33,212-31.8,186.3-63.4,339.5-81.8,369.2-44.4,450.9,147.1,773,106.3,250.3-31.7,273.6-165.1,511.2-151.3,229.12,13.32,307.92,130.95,411.6,113.47V0H0Z"/>
      </g>
    </g>
  </g>
</svg>