<?xml version="1.0" encoding="UTF-8"?>
<svg xmlns="http://www.w3.org/2000/svg" xmlns:xlink="http://www.w3.org/1999/xlink" viewBox="553.67 1447.63 2572.38 400.34" preserveAspectRatio="none">
  <defs>
    <style>
      .cls-2 {
        fill: none;
      }

      .cls-3 {
        fill: #ff6c1f;
      }

      .cls-4 {
        fill: #fff9f9;
      }

      .cls-5 {
        fill: #3a4384;
      }
    </style>
  </defs>
  <g id="Layer_2" data-name="Layer 2">
    <g id="Layer_1-2" data-name="Layer 1">
      <rect class="cls-5" x="553.67" width="2572" height="12893.56"/>
      <g>
        <path class="cls-4" d="M384.77,1570.5c148.3-57.1,366.8-23.9,520.9,43.1,149.6,65,155.5,125.7,266.9,155,227.7,59.9,329.7-160.4,615.6-223.9,403-89.5,563.9,267.4,985.9,176.5,293-63.1,341.3-262.3,473.6-223.9,362.1,105.2,336.4,1695.7-34.4,1799.6-116.6,32.7-196-101.6-447.7-116.2-250.1-14.5-274.6,125.9-538.1,159.3-339,43-425-158.6-813.7-111.9-161.2,19.4-134.2,52.6-357.3,86.1-188.6,28.3-415.4,59.4-641.5-51.7-4.6-2.3-102.6-51.1-176.5-120.5C-139.63,2786.7-51.33,1738.4,384.77,1570.5Z"/>
        <path class="cls-3" d="M452.17,1610.8c140.9-54.2,348.4-22.7,494.9,40.9,142.1,61.7,147.8,119.4,253.6,147.2,216.3,56.9,313.2-152.4,584.9-212.7,382.8-85,535.7,254,936.6,167.7,278.4-60,324.2-249.2,449.9-212.7,344,100,319.6,1610.9-32.7,1709.6-110.8,31-186.2-96.5-425.3-110.4-237.6-13.8-260.9,119.6-511.2,151.3-322.1,40.8-403.8-150.7-773-106.3-153.2,18.4-127.5,50-339.5,81.8-179.2,26.9-394.6,56.5-609.4-49.1-4.4-2.1-97.5-48.5-167.7-114.5C-46.13,2766.1,37.77,1770.3,452.17,1610.8Z"/>
      </g>
    </g>
  </g>
</svg>
