<?xml version="1.0" encoding="UTF-8"?>
<svg xmlns="http://www.w3.org/2000/svg" xmlns:xlink="http://www.w3.org/1999/xlink" viewBox="0 0 2572 397.61" preserveAspectRatio="none">
  <defs>
    <style>
      .cls-1 {
        fill: #f9f9f9;
      }

      .cls-2 {
        clip-path: url(#clippath);
      }

      .cls-3 {
        fill: none;
      }

      .cls-4 {
        fill: #ff6c1f;
      }

      .cls-5 {
        fill: #3a4384;
      }
    </style>
    <clipPath id="clippath">
      <rect class="cls-3" x="0" width="2572" height="397.61"/>
    </clipPath>
  </defs>
  <g id="Layer_1" data-name="Layer 1"/>
  <g id="Layer_2" data-name="Layer 2">
    <g id="Layer_1-2" data-name="Layer 1">
      <g class="cls-2">
        <rect class="cls-5" x="0" y="-6253.76" width="2572" height="12893.56"/>
        <g>
          <path class="cls-1" d="M1.7-1584.06c117.8-13.3,149,135.4,345.8,184.7,229.8,57.5,325-110.9,613-145.4,374.1-44.8,432.2,213.1,778.1,172.9,341.1-39.6,390.8-302.7,707.4-294.7,185.3,4.7,399.3,100.6,506.9,271.2,104.6,165.7,37.1,432.3-102.2,958.9-132.4,500.6-195.8,556.3-247.6,585.5-187.3,105.8-321.6-78.3-746.7-78.6-361.4-.3-377.4,132.7-723.1,117.9-367.2-15.7-419.7-168.7-683.8-125.8C110.5,117.74,37,396.34-128,353.34c-241.4-63-286.9-712.1-228-1155.4,5.9-43.7,105.3-753.5,357.7-782Z"/>
          <path class="cls-4" d="M61.3-1533.66c112-12.6,141.6,128.7,328.5,175.5,218.3,54.6,308.8-105.3,582.4-138.1,355.4-42.6,410.6,202.4,739.2,164.3,324-37.6,371.3-287.6,672-280,176,4.4,379.4,95.6,481.6,257.6,99.3,157.4,35.2,410.7-97.1,910.9-125.8,475.6-186,528.5-235.2,556.3-177.9,100.5-305.5-74.3-709.3-74.7-343.3-.3-358.5,126-686.9,112C787.6,135.24,737.8-10.16,486.9,30.64,164.7,83.14,94.9,347.74-61.9,306.94c-229.3-59.8-272.5-676.5-216.5-1097.6,5.5-41.6,99.9-715.9,339.7-743Z"/>
        </g>
      </g>
    </g>
  </g>
</svg>