<svg viewBox="0 0 2124.8 90.13" xmlns="http://www.w3.org/2000/svg"><g fill="#f36d27"><circle cx="44.65" cy="45.13" r="43.65"/><circle cx="133.15" cy="45.13" r="43.65"/><circle cx="221.65" cy="45.13" r="43.65"/><circle cx="310.15" cy="45.13" r="43.65"/><circle cx="398.65" cy="45.13" r="43.65"/><circle cx="487.15" cy="45.13" r="43.65"/><circle cx="575.65" cy="45.13" r="43.65"/><circle cx="664.15" cy="45.13" r="43.65"/><circle cx="752.65" cy="45.13" r="43.65"/><circle cx="841.15" cy="45.13" r="43.65"/><circle cx="929.65" cy="45.13" r="43.65"/><circle cx="1018.15" cy="45.13" r="43.65"/><circle cx="1106.65" cy="45.13" r="43.65"/><circle cx="1195.15" cy="45.13" r="43.65"/><circle cx="1283.65" cy="45.13" r="43.65"/><circle cx="1372.15" cy="45.13" r="43.65"/><circle cx="1460.65" cy="45.13" r="43.65"/><circle cx="1549.15" cy="45.13" r="43.65"/><circle cx="1637.65" cy="45.13" r="43.65"/><circle cx="1726.15" cy="45.13" r="43.65"/><circle cx="1814.65" cy="45.13" r="43.65"/><circle cx="1903.15" cy="45.13" r="43.65"/><circle cx="1991.65" cy="45.13" r="43.65"/><circle cx="2080.15" cy="45.13" r="43.65"/></g></svg>