<?xml version="1.0" encoding="UTF-8"?>
<svg xmlns="http://www.w3.org/2000/svg" viewBox="0 0 1126.84 849.11">
  <defs>
    <style>
      .cls-1, .cls-2, .cls-3, .cls-4 {
        stroke-miterlimit: 10;
      }

      .cls-1, .cls-3, .cls-4 {
        stroke: #f17c3f;
      }

      .cls-1, .cls-4 {
        fill: #f8b887;
      }

      .cls-5 {
        fill: #fff;
      }

      .cls-6 {
        fill: #f9f9fa;
      }

      .cls-2 {
        stroke: #3c4483;
      }

      .cls-2, .cls-3 {
        fill: none;
      }

      .cls-3, .cls-4 {
        stroke-width: .5px;
      }

      .cls-7, .cls-8 {
        fill: #3c4483;
      }

      .cls-9 {
        fill: #f36d27;
      }

      .cls-8 {
        opacity: .45;
      }
    </style>
  </defs>
  <g id="Layer_1" data-name="Layer 1"/>
  <g id="Layer_2" data-name="Layer 2">
    <g id="Layer_1-2" data-name="Layer 1">
      <g>
        <path class="cls-8" d="M1075.84,750.65l-56,14-10.07,23.28c-3.91,9.04-5.78,18.82-5.48,28.66l.55,18.06,39.3,12.35c18.42,5.79,38.48-.61,50.14-16l27.56-36.35,5-51-11-42-54,17,14,32Z"/>
        <g>
          <path class="cls-1" d="M21.97,18.49l35.35,53.79,63.64,31.31,26.77,4.55,39.65,11.11,136.62,23.48,130.81,17.17,86.36,13.13,56.06,8.08,6.06,9.09,38.38,6.06,85.35,19.19,56.57,16.16,37.88,8.08,22.73,14.65,39.9,30.81,10.1,6.06,7.07-1.01,26.26-2.53,14.14-9.6,28.28-18.18,23.23-15.15,8.59-3.54,21.72,8.33,9.85,3.03,4.04,2.78,3.03,1.77,12.37,.25,10.1,5.3,6.82,6.57,6.57,.51,10.61,6.57,6.82,5.05-1.77,1.01,12.63,10.86,1.52,3.54-1.77,5.3-59.22,37.25-5.11,4.73-9.09,.57-15.53,.19-.63-6.12,10.86-5.62,4.92-2.08,4.36,.95-.19,1.14-5.49,4.55,3.22-2.65,4.73-1.7,7.01-5.68,38.95-27.53-4.55-1.77-7.58,1.01-8.08,3.79-14.9,15.15-9.6,14.39-4.55,8.33-5.81,9.6-36.11,26.26-14.14,11.11,9.09,44.19,13.89,49.49,2.27,12.12v8.33l-2.53,9.6-4.8,20.2-.76,13.13,1.01,37.63,4.29,37.63,5.3,15.4,7.83,12.88,13.38,12.37,10.86,8.08,14.39,12.12,26.01,10.86,18.94,4.8,12.88,.51,2.78,6.31-9.34,12.12-21.97,27.78-5.81,7.83-12.63-.25-16.67-1.52h-16.16l-16.67,.51-22.73-.51-14.9-5.3-3.54-6.31,2.02-4.55-6.82-5.56,.25-19.95,1.01-28.79,3.54-10.86-5.81-17.42-8.08-22.22-5.81-19.7-4.8-21.72-4.04-38.13,1.26-23.74,14.39-25.76,.76-7.32-17.17-30.05-18.69-27.53-4.55-22.98-3.28-20.45-2.71-3.71c-1.13-1.55-3.34-1.84-4.83-.63l-7.86,6.36-11.62,2.02-19.7-2.02-36.11-14.9-31.06,3.79-40.15,10.61-56.31,13.89-46.21,7.32-43.69,6.31-25.51,6.82-79.29,16.16-51.01,20.45-102.27,53.03-69.44,40.4-82.07,61.62-62.63,63.64-56.31,59.85L4.04,834.65,6.82,1.32l15.15,17.17Z"/>
          <path class="cls-5" d="M0,18.49l37.88,12.88,12.88,28.79,34.09,22.73,9.85,.76,8.33,7.58s8.02,5.35,8.04,5.36c0,0,3.31,2.21,3.32,2.21l16.67-2.27,16.67,10.61,21.21,2.27,14.39,5.3,13.64,6.06h18.18c4.63,1.68,9.26,3.37,13.89,5.05,15.91,2.78,31.82,5.56,47.73,8.33,29.46,4.38,58.92,8.75,88.38,13.13,23.57,3.2,47.14,6.4,70.71,9.6,28.03,4.04,56.06,8.08,84.09,12.12,11.11,1.77,22.22,3.54,33.33,5.3,14.65,1.94,29.29,3.87,43.94,5.81,3.2,4.97,6.4,9.93,9.6,14.9l7.58,35.61v32.58l-2.27,83.33-3.03,42.42-4.55,35.61-11.36,7.58-26.52,3.03-15.91,1.52c-2.78,.25-5.56,.51-8.33,.76-10.86,3.79-21.72,7.58-32.58,11.36l-49.24,18.94-71.97,37.88-44.7,21.97-57.58,35.61-55.3,44.7-53.79,48.48-56.06,56.82-46.21,51.52-56.06,54.55L0,18.49Z"/>
          <polygon class="cls-4" points="999.62 242.54 988.45 224.93 979.92 211.67 970.64 199.17 961.17 191.41 953.6 192.35 947.92 198.79 939.77 212.05 930.68 229.1 921.97 244.25 918.18 250.5 901.52 265.08 900.38 273.22 900.19 279.28 902.08 281.75 903.41 285.72 905.11 289.7 918.75 291.41 931.82 290.46 940.72 283.45 939.96 270.95 939.2 261.1 939.77 252.2 946.59 243.87 955.3 232.5 957.95 229.66 964.96 239.32 972.16 247.85 978.98 256.94 999.62 242.54"/>
          <path class="cls-9" d="M1034.47,255.04v-3.6s-.38-1.52,1.89-3.98l2.27-2.46,2.84-3.22,5.87-2.65,3.22,1.52,5.49,.19,5.49,.57,3.22,2.84,1.7,4.92,3.03,1.89,3.22,5.11-.76,4.92-1.14,5.68-.76,3.22-9.85-.76-26.7-11.17,.95-3.03Z"/>
          <polygon class="cls-5" points="947.16 595 950.76 591.6 957.2 585.91 965.15 581.94 974.05 580.23 983.9 580.04 992.23 581.94 997.35 585.35 997.92 598.22 1000 611.29 1007.2 635.16 1014.96 647.47 1027.08 659.97 1034.47 665.46 1022.16 674.74 990.53 676.63 974.81 675.12 969.32 673.41 968.94 661.67 965.53 648.79 960.23 634.97 955.87 623.6 950.95 609.78 947.16 595"/>
          <polygon class="cls-7" points="967.8 682.13 968.18 695.19 967.42 705.61 967.61 711.86 964.77 721.14 969.13 733.26 973.67 742.16 983.52 748.41 994.51 751.06 1014.2 750.69 1045.64 750.69 1075.57 750.5 1090.34 734.97 1110.23 708.83 1115.72 701.44 1111.17 692.92 1103.03 691.97 1100.38 694.06 1092.42 694.44 1079.73 691.78 1067.8 686.29 1052.27 679.28 1045.45 673.98 1038.64 668.3 1035.61 664.7 1028.98 666.41 1021.59 671.9 1005.49 673.98 984.85 673.41 972.35 672.28 968.37 671.33 965.91 677.96 967.8 682.13"/>
          <polyline class="cls-6" points="929.92 287.43 945.27 275.69 957.2 267.54 968.94 259.4 975.38 255.61 971.21 248.79 967.23 242.35 980.87 241.97 983.14 240.46 983.33 235.72 983.14 225.69 984.09 217.92 989.02 223.03 1001.14 239.13 1003.03 241.78 1006.82 243.3 1021.21 247.47 1032.95 252.58 1038.45 256.18 1052.27 256.18 1064.39 264.51 1069.51 268.68 1077.08 269.25 1087.12 276.63 1095.27 282.13 1094.7 283.83 1088.26 283.64 1082.58 284.97 1077.65 288.19 1076.33 293.68 1077.84 298.41 1080.68 300.31 1079.92 301.25 1076.52 302.01 1068.75 301.63 1064.2 303.15 1057.95 310.72 1045.83 326.63 1036.36 340.46 1036.74 328.91 1035.23 315.08 1032.77 300.5 1024.62 288.94 1014.39 282.88 1004.55 274.93 994.89 271.9 980.87 272.85 971.4 272.28 958.14 276.63 945.27 279.85 933.14 286.1 929.92 287.43"/>
          <polyline class="cls-2" points="544.19 173.54 558.33 238.19 558.33 283.64 558.33 341.22 558.33 387.68 552.27 423.03 546.21 437.18"/>
          <polyline class="cls-2" points="949.24 603.84 959.34 596.77 973.48 590.71 987.63 590.71 997.92 598.22"/>
          <polyline class="cls-3" points="906.82 272.28 917.23 272.47 918.56 274.74 916.48 278.34 904.55 282.69"/>
          <polyline class="cls-3" points="910.98 290.27 916.29 285.35 920.64 280.99 922.54 277.01 920.45 274.17 918.56 274.74"/>
          <polyline class="cls-3" points="921.02 290.27 926.52 284.4 928.03 281.18 925.95 277.58 923.3 277.96 921.59 278.72"/>
          <polygon class="cls-7" points="908.14 386.86 916.86 383.45 924.62 378.72 928.79 373.03 931.06 363 931.25 347.85 930.3 334.4 926.52 324.36 921.59 315.27 913.64 305.8 906.82 296.71 898.11 290.65 895.08 290.65 906.44 289.32 918.37 288.94 927.65 289.32 934.66 283.83 948.48 279.47 963.45 275.12 974.81 272.47 983.33 271.33 996.97 272.28 1007.39 276.82 1021.78 286.67 1031.63 297.85 1036.17 313.75 1036.74 328.91 1036.36 338.75 1031.44 346.33 1029.73 351.44 1021.59 355.99 1011.55 364.32 1002.46 371.33 990.34 379.28 981.63 386.48 978.6 389.7 980.68 399.74 984.28 415.84 987.12 430.23 988.83 434.97 980.68 440.08 969.7 446.52 961.17 450.88 949.24 457.69 941.1 463.38 937.31 457.31 933.14 449.93 923.86 436.86 920.64 424.74 916.29 410.91 915.53 399.55 914.77 390.46 908.14 386.86"/>
        </g>
      </g>
    </g>
  </g>
</svg>