<?xml version="1.0" encoding="UTF-8"?>
<svg xmlns="http://www.w3.org/2000/svg" viewBox="0 0 136.86 685">
  <defs>
    <style>
      .cls-1 {
        fill: #f36d27;
      }
    </style>
  </defs>
  <g transform="matrix(0 1 -1 0 136.86 0)">
    <g>
      <g>
        <path class="cls-1" d="M0,68.43c0,37.79,33.82,68.43,75.54,68.43V0C33.82,0,0,30.64,0,68.43Zm7.55,0c0-30.23,27.06-54.74,60.43-54.74V123.17c-33.37,0-60.43-24.51-60.43-54.74Z"/>
        <path class="cls-1" d="M75.5,68.43c0,37.79,33.82,68.43,75.54,68.43V0c-41.72,0-75.54,30.64-75.54,68.43Zm7.55,0c0-30.23,27.06-54.74,60.43-54.74V123.17c-33.37,0-60.43-24.51-60.43-54.74Z"/>
        <path class="cls-1" d="M151,68.43c0,37.79,33.82,68.43,75.54,68.43V0c-41.72,0-75.54,30.64-75.54,68.43Zm7.55,0c0-30.23,27.06-54.74,60.43-54.74V123.17c-33.37,0-60.43-24.51-60.43-54.74Z"/>
      </g>
      <g>
        <path class="cls-1" d="M230,68.43c0,37.79,33.82,68.43,75.54,68.43V0c-41.72,0-75.54,30.64-75.54,68.43Zm7.55,0c0-30.23,27.06-54.74,60.43-54.74V123.17c-33.37,0-60.43-24.51-60.43-54.74Z"/>
        <path class="cls-1" d="M305.5,68.43c0,37.79,33.82,68.43,75.54,68.43V0c-41.72,0-75.54,30.64-75.54,68.43Zm7.55,0c0-30.23,27.06-54.74,60.43-54.74V123.17c-33.37,0-60.43-24.51-60.43-54.74Z"/>
        <path class="cls-1" d="M381,68.43c0,37.79,33.82,68.43,75.54,68.43V0c-41.72,0-75.54,30.64-75.54,68.43Zm7.55,0c0-30.23,27.06-54.74,60.43-54.74V123.17c-33.37,0-60.43-24.51-60.43-54.74Z"/>
      </g>
      <g>
        <path class="cls-1" d="M458.46,68.43c0,37.79,33.82,68.43,75.54,68.43V0c-41.72,0-75.54,30.64-75.54,68.43Zm7.55,0c0-30.23,27.06-54.74,60.43-54.74V123.17c-33.37,0-60.43-24.51-60.43-54.74Z"/>
        <path class="cls-1" d="M533.96,68.43c0,37.79,33.82,68.43,75.54,68.43V0c-41.72,0-75.54,30.64-75.54,68.43Zm7.55,0c0-30.23,27.06-54.74,60.43-54.74V123.17c-33.37,0-60.43-24.51-60.43-54.74Z"/>
        <path class="cls-1" d="M609.46,68.43c0,37.79,33.82,68.43,75.54,68.43V0c-41.72,0-75.54,30.64-75.54,68.43Zm7.55,0c0-30.23,27.06-54.74,60.43-54.74V123.17c-33.37,0-60.43-24.51-60.43-54.74Z"/>
      </g>
    </g>
  </g>
</svg>
