<?xml version="1.0" encoding="UTF-8"?>
<svg xmlns="http://www.w3.org/2000/svg" viewBox="0 0 2500.82 915.09">
  <defs>
    <style>
      .cls-1 {
        opacity: .91;
      }

      .cls-1, .cls-2 {
        fill: #f36d27;
      }
    </style>
  </defs>
  <g id="Layer_1" data-name="Layer 1"/>
  <g id="Layer_2" data-name="Layer 2">
    <g id="Layer_1-2" data-name="Layer 1">
      <g>
        <ellipse class="cls-2" cx="1659.12" cy="94.43" rx="92.53" ry="94.43" transform="translate(-2.22 54.98) rotate(-1.9)"/>
        <path class="cls-1" d="M1151.8,353.19c-60.25,46.22-177.26,200.22-342.35,273.73-193.24,85.97-263.75,13.33-440.24,94.61-186.49,85.99-200.5,203.03-289.04,192.95C34.19,909.21,2.02,879.22,.09,841.93c-4.36-86.28,154.44-201.28,245.98-253.53,65.82-37.5,120.05-54.35,226.34-86.91,250.34-76.49,280.69-45.58,397.64-108.54,119.28-64.21,119.9-113.71,241.58-168.15,106.98-47.68,290.29-59.18,419.79-87.07,67.52-14.51-302.16,155.84-379.61,215.46Z"/>
        <path class="cls-1" d="M1784,123.6c58.74,4.66,140.24-1.09,190.22,13.62,56.86,16.82,60.05,38.61,116.43,59.88,55.28,20.86,66.84,5.44,181.72,24.4,48.79,8.08,73.69,12.31,104.92,24.97,43.44,17.64,120.24,58.97,123.41,97.27,1.35,16.55-11.06,31.67-31.03,36.71-38.44,9.67-51.52-41.11-138.82-68.02-82.61-25.43-109.42,10.76-199.69-15.74-77.13-22.67-137.8-83.67-167.1-100.49-37.66-21.72-210.71-75.02-180.08-72.6Z"/>
      </g>
    </g>
  </g>
</svg>