<svg width="598" height="300" viewBox="0 0 598 300" fill="none" xmlns="http://www.w3.org/2000/svg">
<path d="M27.1819 175H505.197L415.689 257.323C405.073 267.085 405.073 282.915 415.689 292.678C420.996 297.558 427.953 300 434.91 300C441.867 300 448.823 297.558 454.129 292.677L590.038 167.676C600.654 157.915 600.654 142.085 590.038 132.321L454.129 7.32126C443.516 -2.44042 426.304 -2.44042 415.689 7.32126C405.073 17.0829 405.073 32.913 415.689 42.6763L505.197 125H27.1819C12.1702 125 0 136.193 0 150C0 163.806 12.1702 175 27.1819 175Z" fill="#264F6C"/>
</svg>
