<?xml version="1.0" encoding="UTF-8"?>
<svg xmlns="http://www.w3.org/2000/svg" viewBox="0 0 652.13 620.55">
  <defs>
    <style>
      .cls-1 {
        fill: #f9f9f9;
      }
    </style>
  </defs>
  <g id="Layer_1" data-name="Layer 1"/>
  <g id="Layer_2" data-name="Layer 2">
    <g id="Layer_1-2" data-name="Layer 1">
      <path class="cls-1" d="M650.24,416.49c2.53-17.61,4.51-49.89-8-84-9.91-27.03-19.31-28.98-28-48-25.62-56.08,30.68-94.61,24-176-3.78-45.99-27.38-102.26-60-108-34.33-6.04-67.89,45.76-92,32-12.55-7.17-19.02-30.1-40-32-.56-.05-1.03-.08-1.9-.11-48.95-1.89-98.1,12.11-98.1,12.11-45.33,12.91-37.97,19.3-64,24-56.32,10.18-71.35-23.22-112-12-39.17,10.81-33,89.19-92,84-47.97-4.22-58.5,22.5-68,44-8.62,19.52-26.53,54.67,24,100,37,33.19,59.07,74.83,32,96-45,35.19,3,131.19-16,144-49.74,33.52-32.26,78.09-20,96,13.87,20.26,50.78,17.73,76,16,72.22-4.95,80.47-38.63,128-36,57.7,3.19,67.05,54,124,52,40.15-1.41,39.97-26.83,84-32,63.93-7.51,88.77,43.19,140,28,23.96-7.11,48.59-27.12,56-52,8.21-27.57-11.38-38.8-8-80,2.6-31.65,14.58-30.31,20-68Z"/>
    </g>
  </g>
</svg>