<?xml version="1.0" encoding="UTF-8"?>
<svg xmlns="http://www.w3.org/2000/svg" viewBox="0 0 739.5 545">
  <defs>
    <style>
      .cls-1 {
        fill: #f9f5d7;
        isolation: isolate;
        opacity: .88;
      }

      .cls-2 {
        fill: #d1a983;
      }

      .cls-3 {
        fill: #ff6c1f;
      }

      .cls-4 {
        fill: #ddc0a5;
      }
    </style>
  </defs>
  <g id="Layer_1" data-name="Layer 1"/>
  <g id="Layer_2" data-name="Layer 2">
    <g id="Layer_1-2" data-name="Layer 1">
      <g>
        <polygon class="cls-2" points="266 516.5 284.5 443.5 299 376.5 340.5 361 349.5 355 351 351.5 375.5 359 422.5 367 471.5 371.5 484.5 372.5 479 401 473 452 475 506.5 475 522.5 266 516.5"/>
        <polygon class="cls-2" points="549.5 399.5 553.5 437 550.5 496.5 544 535 565.5 539.5 637.5 540 710 541 739.5 543 733.5 451 721.5 374.5 701.5 288 686.5 236.5 657 188 640.5 173.5 613 173.5 591 181.5 573.5 263 549.5 399.5"/>
        <g>
          <polygon class="cls-3" points="78.5 316.5 68 116.5 95.5 111 165 100.5 230.5 79 262.5 61.5 285.5 43 296 30 298.5 19.5 327.5 0 384 12 524 39.5 591 49 594.5 110.5 609 276.5 612 371.5 562 382 502.5 381 367 362 347.5 358 334 369 289 382.5 252 387.5 177 394.5 142.5 393 107 391 84 387.5 78.5 316.5"/>
          <polygon class="cls-1" points="90 121.5 93.5 359.5 93 387.5 162 392 216 390 274.5 383 314.5 373.5 336 364 345 358 351 353 376.5 361 426.5 367.5 489 376 543.5 380 569 379.5 564 194 557.5 72 485 64 400.5 54 351 44.5 314 29 304 22 304 38 293.5 54.5 271.5 72 218.5 97 172 107 97.5 120.5 90 121.5"/>
        </g>
        <polygon class="cls-4" points="25 517 35.5 477 35 447 20 392 5 348 0 333.5 5 330 5.5 322.5 23.5 307 60 253.5 67 249 67.5 273.5 73 304.5 66 311.5 79 322.5 81 353.5 85.5 362 100 340.5 107 310.5 121.5 283 131.5 269 148.5 266.5 160 277 156.5 294 150 318 137.5 343.5 130.5 366.5 132 384.5 134.5 406 134 421 130.5 440.5 119.5 463.5 105.5 502 102 518 25 517"/>
        <polygon class="cls-4" points="737 504.5 711 459.5 700.5 443.5 698 428.5 673.5 408 657.5 375.5 649.5 309 644 276 633.5 255.5 628 224 594.5 167.5 582 159 574 145 570.5 145 573 191.5 580.5 202 584.5 218 593 238 581 217 575 205 580 258 587 266.5 586.5 278 582.5 282.5 576.5 270.5 566.5 254 556 254 544 261 541 280 543.5 306.5 543.5 336.5 534 370.5 548.5 410 571.5 438.5 591.5 454.5 621.5 487 650.5 530.5 661.5 545 739.5 543.5 737 504.5"/>
      </g>
    </g>
  </g>
</svg>