<?xml version="1.0" encoding="UTF-8"?>
<svg xmlns="http://www.w3.org/2000/svg" viewBox="0 0 2653.5 1095.33">
  <defs>
    <style>
      .cls-1 {
        fill: none;
        stroke-width: 7px;
      }

      .cls-1, .cls-2, .cls-3 {
        stroke: #fff;
        stroke-miterlimit: 10;
      }

      .cls-2 {
        stroke-width: 2px;
      }

      .cls-2, .cls-3 {
        fill: #fff;
      }

      .cls-3 {
        stroke-width: 4px;
      }

      .cls-4 {
        fill: #f9f9f9;
      }

      .cls-5 {
        fill: #ff6c1f;
      }
    </style>
  </defs>
  <g id="Layer_1" data-name="Layer 1"/>
  <g id="Layer_2" data-name="Layer 2">
    <g id="Layer_1-2" data-name="Layer 1">
      <g>
        <g>
          <polygon class="cls-4" points="92.2 617.82 106.3 406.32 78.1 319.62 98.7 218.72 42.3 220.92 15.2 207.82 22.8 137.32 8.7 82.02 22.8 36.52 71.6 36.52 136.7 47.32 227.8 23.42 329.8 23.42 395.9 35.42 389.4 173.12 391.6 317.42 384 434.52 390.5 571.22 466.4 505.02 541.3 435.62 490.3 417.22 451.2 391.12 467.5 326.12 482.7 276.22 632.4 271.82 790.7 264.22 826.5 297.92 826.5 400.92 796.2 442.12 744.1 444.32 663.8 531.12 744.1 613.52 790.7 666.62 827.6 655.82 841.7 799.02 792.9 854.32 622.6 839.12 565.1 797.92 442.6 672.12 390.5 618.92 385.1 725.22 399.2 772.92 375.3 853.22 280.9 839.12 146.5 847.82 38 827.22 0 767.52 23.9 700.32 17.4 653.62 93.3 648.22 92.2 617.82"/>
          <polygon class="cls-4" points="891.6 292.42 901.4 396.62 897 488.82 971.9 459.52 977.3 558.22 965.4 652.52 909 658.02 898.1 702.42 898.1 813.12 936.1 846.72 1249.5 843.42 1320.1 842.42 1342.8 819.62 1345 722.02 1347.2 672.12 1315.7 660.12 1265.8 658.02 1263.7 545.22 1263.7 497.42 1329.8 459.52 1393.8 475.72 1409 539.72 1406.8 652.52 1407.9 768.62 1410.1 820.72 1436.1 840.22 1574.9 836.92 1701.9 841.32 1775.6 818.52 1775.6 684.02 1744.2 656.92 1707.3 651.52 1713.8 483.32 1674.7 372.72 1615.1 264.22 1436.1 270.72 1308.1 323.92 1270.2 348.82 1270.2 287.02 1219.2 265.32 1001.2 271.82 891.6 292.42"/>
          <polygon class="cls-4" points="1820.1 724.12 1841.8 635.22 1905.8 639.52 1893.8 433.42 1884.1 261.02 1907.9 235.02 1828.8 218.72 1793 98.32 1829.8 20.22 2086.9 27.82 2174.8 36.52 2197.5 65.72 2184.5 172.02 2186.7 319.62 2187.8 510.52 2189.9 563.62 2268 506.12 2348.3 428.02 2342.9 416.12 2273.5 421.52 2245.3 392.22 2255 279.42 2320.1 257.72 2563.1 271.82 2603.2 274.02 2635.7 317.42 2628.2 404.22 2596.7 440.02 2546.8 447.52 2470.9 519.12 2460 536.52 2543.5 609.22 2577.2 651.52 2616.2 650.42 2631.4 757.82 2628.2 825.02 2595.6 843.42 2436.2 842.42 2388.4 830.42 2283.2 711.12 2199.7 631.92 2191 664.52 2201.9 826.12 2169.3 844.52 1965.4 844.52 1873.2 841.32 1812.5 810.92 1820.1 724.12"/>
        </g>
        <g>
          <polygon class="cls-5" points="110 604.72 124.1 393.22 95.9 306.52 116.5 205.62 60.1 207.82 33 194.72 40.6 124.22 26.5 68.92 40.6 23.42 89.4 23.42 154.5 34.22 245.6 10.42 347.5 10.42 413.7 22.32 407.2 160.02 409.3 304.32 401.8 421.42 408.3 558.12 484.2 491.92 559 422.52 508.1 404.12 469 378.12 485.3 313.02 500.5 263.12 650.1 258.72 808.5 251.12 844.3 284.82 844.3 387.82 813.9 429.02 761.9 431.22 681.6 518.02 761.9 600.42 808.5 653.62 845.4 642.72 859.5 785.92 810.7 841.22 640.4 826.02 582.9 784.82 460.3 659.02 408.3 605.82 402.8 712.12 416.9 759.92 393.1 840.12 298.7 826.02 164.2 834.72 55.7 814.12 17.8 754.42 41.6 687.22 35.1 640.52 111.1 635.12 110 604.72"/>
          <polygon class="cls-5" points="909.4 279.32 919.1 383.52 914.8 475.72 989.6 446.42 995.1 545.12 983.1 639.52 926.7 644.92 915.9 689.42 915.9 800.02 953.8 833.62 1267.3 830.42 1337.8 829.32 1360.6 806.52 1362.8 708.92 1364.9 659.02 1333.5 647.02 1283.6 644.92 1281.4 532.12 1281.4 484.32 1347.6 446.42 1411.6 462.72 1426.8 526.72 1424.6 639.52 1425.7 755.52 1427.8 807.62 1453.9 827.12 1592.7 823.82 1719.6 828.22 1793.4 805.42 1793.4 670.92 1761.9 643.82 1725 638.42 1731.5 470.22 1692.5 359.62 1632.8 251.12 1453.9 257.72 1325.9 310.82 1287.9 335.82 1287.9 273.92 1236.9 252.22 1018.9 258.72 909.4 279.32"/>
          <polygon class="cls-5" points="1837.8 711.02 1859.5 622.12 1923.5 626.42 1911.6 420.42 1901.8 247.92 1925.7 221.92 1846.5 205.62 1810.7 85.22 1847.6 7.12 2104.7 14.72 2192.5 23.42 2215.3 52.72 2202.3 159.02 2204.5 306.52 2205.5 497.42 2207.7 550.52 2285.8 493.02 2366.1 414.92 2360.6 403.02 2291.2 408.42 2263 379.12 2272.8 266.32 2337.9 244.62 2580.8 258.72 2621 260.92 2653.5 304.32 2645.9 391.12 2614.5 426.92 2564.6 434.52 2488.6 506.02 2477.8 523.42 2561.3 596.12 2594.9 638.42 2634 637.32 2649.2 744.72 2645.9 811.92 2613.4 830.42 2453.9 829.32 2406.2 817.32 2301 698.02 2217.5 618.82 2208.8 651.42 2219.6 813.02 2187.1 831.42 1983.2 831.42 1891 828.22 1830.3 797.82 1837.8 711.02"/>
        </g>
      </g>
      <g>
        <path class="cls-3" d="M1689.6,76.12c-.6,8.7,4.5,16.1,5.2,24.5-3.7,6.1,5.8,7.4,4.5,12.6-13.2-2.6-25.3-7.1-35-17.9,3.7-.5,5.8,2.6,8.7,2.9,2.7,.3,5.2,4.2,7.6,1.9,2.7-2.4,1.8-6.4,1-9.8-4.5-17.7-17.7-27.1-34.2-30.5-50.9-10.6-101.6-10.2-150.6,10.5-.6,.3-1.1,.6-1.6,.8-16.1,8.7-16.8,13.2-2.3,23.2,30.6,21.1,61.6,41.9,92.2,63,7.3,5,14,10.6,21.1,16,4.8,10-5.3,1.1-5.8,4.5-7.4,0-12.4-6.4-19.5-7.1-.2-2.9,.6-6.3-4-6.1-1.1-2.4-2.3-4.7-5-6.3-22.1-14.3-43.5-29.7-65.9-43.4-11.3-6.9-19.2-18.9-32.9-22.2-6.1,0-7.6,5.5-10.5,9-.5,.6-1,1.1-1.5,1.8-2.4,1.3-5,2.6-7.4,4-9.4-.2-18.9,.5-28.1-.5-7.1-.8-13.2,.8-18.7,4.7-9.5,6.6-18.1,14.5-26.6,22.2-14,12.6-31,21.1-47.1,30.6-26.4,15.6-52.2,11.6-78.3,0-6.1-3.4-.8-9.5-3.2-13.7,6.6-23.2,9-47.1,7.7-71.1-.5-9.8-4.7-19.3-9-28.5,1-7.4-4.5-12.4-7.9-18.7,8.1-1.5,15.8-1.1,21.4-6.8h-.2c1-.3,2.1-.5,3.1-.8,23.7-5,46.6-13.2,70.3-18.2,29.3-6.1,58.8-6.3,88.5-.5,15.6,3.1,31.6,.6,47.6,.8,38.7,.2,77.4,0,116.2,0,14.8,0,29-5.5,43.8-4.4,6.9,.5,14,.8,20.5,2.6,21.1,5.8,31,19.3,30.6,43-.2,11.6,3.5,20.6,11.6,28.2-2.1,3.8-4-1.1-6.3-.3Z"/>
        <path class="cls-1" d="M1636.2,180.82c13.2,1.6,26.6,.2,40,1.5,8.7,.8,19-.6,28.5-2.3,8.2-1.3,16.3-.5,24,2.7,.6,1.9-.2,3.1-1.5,4.7-4.8,5.8-11.3,10.6-12.3,19-1.5,3.7-3.2,7.4-4.5,11.3-3.9,11.4-9.4,22.4-9.2,35.1,.2,24,13.1,41.1,29.8,56.3,6.8,7.4-.5,9.5-4.8,12.3-7.4,4.8-16.9,5.6-23.9,11.6-21.1,4.2-40.1,1.1-59.2-10.5-13.9-8.4-25.6-17.7-33-31.8-14.5-27.1-12.6-56.3,5.5-83.2,5.2-7.7,9-16.3,15.8-22.7,1.9-1.1,3.4-2.6,4.8-4Z"/>
        <path class="cls-3" d="M1251.6,150.82c-1.8,6-6.6,7.6-12.1,8.9-38.7,9-76.9,19.7-115.6,28.5-19.2,4.5-38.2,9.8-57.4,15-11.9,3.2-23.2,7.1-32.7,15.3-20.3,17.4-37.2,38.7-61.7,51.6-24.5,13.1-48.5,26.9-75.8,33.4-47.9,11.3-96.1,21.4-144.1,32.2-14.5,3.2-22.6,13.1-26.6,26.6-1.1,3.5-1.8,7.3-3.9,10.6-5.3,8.2-11.8,10.5-20.2,5.5-18.9-11.3-36.1-8.9-53.2,3.7-11.9,8.9-25.5,13.9-40.6,13.4-6.1-.2-13.4-.8-14.7-7.7-1.6-8.2,6.9-8.9,12.1-10.3,5.2-1.4,6.1-3.7,6.1-8.2-7.3,3.5-13.9,6.6-21.4,10.3,.8-4.5,3.5-6.3,6.6-8.1,13.4-7.4,24.7-17.1,35.5-27.9,13.9-13.9,28.9-26.4,47.7-33.5,6.1-2.4,12.9-2.6,19-5.6,57.9-29,115.8-57.9,173.8-86.7,18.7-9.4,37.7-21.9,56.9-31.9,.3-.8,.8-1.5,1.5-1.9,.3-.3,.6-.6,1.1-.8-6.8-1.3-12.4,5.5-16.9,8.1-34.7,19.2-70.4,36.3-105.4,55-22.7,12.1-46.6,22.6-70,33.5-16,7.4-31,18.7-47.7,22.7-26,6.1-44.8,21.8-62.9,38.9-10.3,9.8-21,19-33.5,26-4.7,2.6-10.3,5.6-9.2,11.9,1.3,7.6,2.7,15.6,11.8,18.9,6.8,2.6,13.5,2.1,20.5,1.1,14.2-2.1,26.1-8.7,37.6-16.8,12.9-8.9,26.9-9.7,40.1-2.6,16.4,8.9,28.1,5.3,32.6-13.1,4-16.3,13.5-25.1,30-28.7,43-9.2,86.1-18.7,129-28.7,52.7-12.4,99.1-36.3,136.4-76.6,10.8-11.8,23.5-20.6,39.7-24.7,57.6-14.2,115.1-28.9,172.7-43.4,6.1-1.6,12.3-2.3,18.4-.2-6.2-3.4-1.1-9.5-3.5-13.7Z"/>
        <path class="cls-3" d="M1689.6,76.12c2.3-.8,4.2,4,6.6,.3,18.1,21.8,44.8,29,68.8,40,37.2,17.1,76.3,30.8,110.9,52.9,31.1,19.8,61.4,40.6,90.6,63.2,34.5,26.6,69.2,53,100.8,83,4.5,4.2,10,6.3,16,7.6,14,3.2,23.7,11,29.8,24.8,10.2,23.1,18.5,46.8,31.9,68.5,6,9.7,4.8,22.7,10.3,33.4,1.8,3.5-.3,9.2-4.8,11-5.2,1.9-9-1.9-12.1-5.5-16.9-18.7-33.7-37.6-50.5-56.6-2.7-3.1-16.4-19.8-18.5-25.8,6.4,2.6,19.5,20.6,22.6,24.2,16,17.6,31.8,35.1,47.6,52.9,.8,1,1.5,2.1,2.4,2.9,2.1,1.9,4.4,5,7.1,3.5,3.1-1.5,1.5-5,1-7.7-1.1-6-4.5-11-7.9-16-2.1-3.1-1.9-3.1,1-7.4,1.5-2.4,0-5.2-1.3-7.1-14.8-21.1-22.4-45.8-32.7-69.2-5.5-12.3-14.2-18.9-26.4-21.9-6.4-1.6-12.9-3.2-17.4-8.9-.3-3.9-2.6-6-6.4-6.1-1.5-1.5-3.1-2.9-4.5-4.2-3.1-8.1-11.1-11.1-16.9-16.4,1.6,1.9,3.2,3.7,4.8,5.6-7.9-5.2-14.5-11.3-21-18.2-6.8-7.1-16.4-11.8-24.5-18.1-37.4-29.3-75.9-57.4-115.9-83.3-36.1-23.5-76.1-39-115.3-56.3-17.6-7.7-34.8-16.3-52.1-24.5-9.8-4.3-16.6-13-24-20.6Z"/>
        <path class="cls-3" d="M1151.3,61.12c-7.1,8.5-17.9,11.4-27.2,16-58.5,28.5-116.6,58-163.5,104-13.7,13.5-28.1,21.9-45.8,28.1-17.6,6.1-32.9,18.1-49.5,26.1-29.2,14.2-56.9,31-86.4,44.3-27.1,12.3-53.4,27.1-80.8,38.4-26.9,11.1-67.4,42.2-91.2,59.3-1-6.6,21.9-22.9,24.8-25.5,26.9-23.4,59.6-36.1,91.4-50.8,59-27.2,116.7-57.1,173.5-88.7,9.4-5.2,19.3-9.7,29.5-12.1,10.2-2.4,16.9-7.6,23.9-15,23.5-25.8,52.1-45.5,81.9-63.4,5-3.1,10-6.1,14.5-9.8-17.7,1.6-31.9,11.9-48.4,21.9,4-9.2,11.1-11.3,16.4-15,13.9-9.7,30.3-13.9,45.8-20.2,27.9-11.3,55.1-23.5,82.2-36.3,2.7-1.3,5.3-3.5,8.7-1.3,.2,.4,.2,0,.2,0Z"/>
        <path class="cls-3" d="M2077.3,379.22c-11.9-13.4-23.5-28.1-40.1-35.3-32.6-14.2-65-28.4-96.6-44.2-58.7-29.5-117.4-59-171.5-96.6-12.4-8.5-25.5-16-40.1-20.3,.6,1.9-.2,3.1-1.5,4.7-4.8,5.8-11.3,10.6-12.3,19,1.1-1.1,2.4-2.1,3.4-3.4,12.3-16.4,10.8-17.4,31.9-6.4,6.6,3.5,12.7,8.4,19.3,11.8,6.4,3.2,6.9,7.7,5.6,14-1.6,8.1-6.4,16.3,.6,24.2,2.1,2.4-.2,3.9-2.1,5.2-4.4,2.6-8.5,5.3-12.9,7.9-8.9,5.3-13.5,12.7-12.9,23.4,.6,8.9-2.7,16.4-8.5,23.2-2.3,2.7-4.7,4-8.1,2.9,6.8,7.4-.5,9.5-4.8,12.3-7.4,4.8-16.9,5.6-23.9,11.6,2.7,1.5,5.5-2.3,8.2-1.1,.6-.5,1.3-.8,1.9-1.1,1.1-1.6,3.7-1.5,5.3-2.3,19.3-10.6,34.7-23.9,34-48.7-.2-6.9,3.9-12.6,10-16.1,5.5-3.2,10.8-6.4,16.3-9.7,2.4-1.5,5.6-3.1,2.9-6.4-8.5-10.2-2.1-20.2-.5-31.3,13.4,8.2,26,16.1,38.7,23.7,31.1,18.2,63.2,35,95.3,51.3,38.5,19.7,77.2,38.7,117.5,54.3,4.7,1.8,8.9,4.5,12.9,7.7,11.1,9.4,21.6,19.5,31.3,30.5,1.5-1.9,1.9-3.5,.7-4.8Z"/>
        <path class="cls-3" d="M2149.4,439.02c-6.6-1.6-21.9-27.7-23.7-31.1-8.9-17.4-17.7-34.8-26.4-52.2-1.9-3.9-4.2-7.1-8.4-8.2-22.6-6.1-38.4-22.4-54.5-37.7-12.9-12.4-25.1-26-39.3-36.3-21.8-16-43-32.4-65.5-47.7-29.8-20.3-60.3-39.5-91.9-56.7-.8-.5-1.8-.8-2.4-1.5-1.3-1.5-17.9-6.6-16.3-9.8,1.6-3.4,16.6,5.2,18.1,6,11.9,6.4,23.7,13.1,35.3,20,37.4,22.2,72.9,47.2,107.4,73.7,19.8,15.2,39,30.6,56.4,48.5,9.8,10.2,21.1,19,32.4,27.4,3.1,2.3,6.1,5.3,9.7,5.8,15.8,2.4,22.9,13.4,29,26.6,7.7,16.8,30.9,55.2,40.1,73.2Z"/>
        <path class="cls-3" d="M1453.8,107.42c2.4-1.3,5-2.6,7.4-4-.5,4.4,3.4,4.7,6,6.1,14.7,7.7,29.3,15.6,44.3,22.7,21.9,10.5,42.7,23.5,65.5,32.4,4.7-.2,3.9,3.4,4,6.1-17.7-5-32.9-15.3-49.2-23.5-26.1-12.9-52.1-26.4-78-39.8Z"/>
        <path class="cls-3" d="M1264,25.72c-5.6,5.6-13.4,5.3-21.4,6.8,3.4,6.3,8.9,11.3,7.9,18.7-.2-.2-.5-.3-.6-.6-11.4-17.4-12.4-17.7-33-11.9-19,5.3-37.4,12.9-55.5,20.6-3.1,1.3-18.7,10.2-22.4,8.5,0,0,8.2-9.7,11.3-8.5,1.5-2.1,4.2-1.8,6.8-2.9,33.7-15.6,69.2-27,106.9-30.7Z"/>
        <path class="cls-2" d="M1699.1,113.22c1.3-5.2-8.2-6.4-4.5-12.6,2.4,6.4,7.1,9.7,13.7,11.4,18.1,5.2,36.6,9,54.2,16.1,4.7,1.9,26.4,9.5,30.5,16.4-25.9-11.6-68.9-22.6-93.9-31.3Z"/>
        <path class="cls-2" d="M1778.6,135.32c14.7,5,54.3,25.8,66.9,32.4-6.6,2.1-59.5-23.9-66.9-32.4Z"/>
        <path class="cls-2" d="M1636.2,180.82c-1.5,1.5-3.1,2.9-4.5,4.4-10.3-2.6-21.1-3.4-31.3-7.3,.5-3.4,10.5,5.5,5.8-4.5,9.2,5.6,20.2,4.3,30,7.4Z"/>
        <path class="cls-3" d="M912.9,195.12c3.5-9.8,37.6-27.6,45.1-33.9,1.1-1,2.4-.8,3.2,.3,1.1,1.8-.2,2.9-1.3,3.9-6.9,6.2-40.1,23.9-47,29.7Z"/>
        <path class="cls-3" d="M949.2,172.22c6-11,47.4-39.5,54.8-45.9-.5,6.4-37.8,35.3-54.8,45.9Z"/>
        <path class="cls-3" d="M2042.5,297.62c-1.6-1.9-3.2-3.7-4.8-5.6,5.8,5.3,13.7,8.4,16.9,16.4-4-3.5-8.1-7.2-12.1-10.8Z"/>
        <path class="cls-2" d="M2059.1,312.62c3.9,.2,6.1,2.1,6.4,6.1-2-1.9-4.3-4-6.4-6.1Z"/>
        <path class="cls-3" d="M1473.3,92.62c-3.7,2.7-5.8,7.6-10.5,9,2.9-3.5,4.3-8.9,10.5-9Z"/>
      </g>
      <g>
        <path class="cls-3" d="M1053,1019.22c.6-8.7-4.5-16.1-5.2-24.5,3.7-6.1-5.8-7.4-4.5-12.6,13.2,2.6,25.3,7.1,35,17.9-3.7,.5-5.8-2.6-8.7-2.9-2.7-.3-5.2-4.2-7.6-1.9-2.7,2.4-1.8,6.4-1,9.8,4.5,17.7,17.7,27.1,34.2,30.5,50.9,10.6,101.6,10.2,150.6-10.5,.6-.3,1.1-.6,1.6-.8,16.1-8.7,16.8-13.2,2.3-23.2-30.6-21.1-61.6-41.9-92.2-63-7.3-5-14-10.6-21.1-16-4.8-10,5.3-1.1,5.8-4.5,7.4,0,12.4,6.4,19.5,7.1,.2,2.9-.6,6.3,4,6.1,1.1,2.4,2.3,4.7,5,6.3,22.1,14.3,43.5,29.7,65.9,43.4,11.3,6.9,19.2,18.9,32.9,22.2,6.1,0,7.6-5.5,10.5-9,.5-.6,1-1.1,1.5-1.8,2.4-1.3,5-2.6,7.4-4,9.4,.2,18.9-.5,28.1,.5,7.1,.8,13.2-.8,18.7-4.7,9.5-6.6,18.1-14.5,26.6-22.2,14-12.6,31-21.1,47.1-30.6,26.4-15.6,52.2-11.6,78.3,0,6.1,3.4,.8,9.5,3.2,13.7-6.6,23.2-9,47.1-7.7,71.1,.5,9.8,4.7,19.3,9,28.5-1,7.4,4.5,12.4,7.9,18.7-8.1,1.5-15.8,1.1-21.4,6.8h.2c-1,.3-2.1,.5-3.1,.8-23.7,5-46.6,13.2-70.3,18.2-29.3,6.1-58.8,6.3-88.5,.5-15.6-3.1-31.6-.6-47.6-.8-38.7-.2-77.4,0-116.2,0-14.8,0-29,5.5-43.8,4.4-6.9-.5-14-.8-20.5-2.6-21.1-5.8-31-19.3-30.6-43,.2-11.6-3.5-20.6-11.6-28.2,1.9-3.7,4,1.1,6.3,.3Z"/>
        <path class="cls-1" d="M1106.3,914.62c-13.2-1.6-26.6-.2-40-1.5-8.7-.8-19,.6-28.5,2.3-8.2,1.3-16.3,.5-24-2.7-.6-1.9,.2-3.1,1.5-4.7,4.8-5.8,11.3-10.6,12.3-19,1.5-3.7,3.2-7.4,4.5-11.3,3.9-11.4,9.4-22.4,9.2-35.1-.2-24-13.1-41.1-29.8-56.3-6.8-7.4,.5-9.5,4.8-12.3,7.4-4.8,16.9-5.6,23.9-11.6,21.1-4.2,40.1-1.1,59.2,10.5,13.9,8.4,25.6,17.7,33,31.8,14.5,27.1,12.6,56.3-5.5,83.2-5.2,7.7-9,16.3-15.8,22.7-1.9,1.1-3.3,2.6-4.8,4Z"/>
        <path class="cls-3" d="M1490.8,944.62c1.8-6,6.6-7.6,12.1-8.9,38.7-9,76.9-19.7,115.6-28.5,19.2-4.5,38.2-9.8,57.4-15,11.9-3.2,23.2-7.1,32.7-15.3,20.3-17.4,37.2-38.7,61.7-51.6,24.5-13.1,48.5-26.9,75.8-33.4,47.9-11.3,96.1-21.4,144.1-32.2,14.5-3.2,22.6-13.1,26.6-26.6,1.1-3.5,1.8-7.3,3.9-10.6,5.3-8.2,11.8-10.5,20.2-5.5,18.9,11.3,36.1,8.9,53.2-3.7,11.9-8.9,25.5-13.9,40.6-13.4,6.1,.2,13.4,.8,14.7,7.7,1.6,8.2-6.9,8.9-12.1,10.3-5.2,1.5-6.1,3.7-6.1,8.2,7.3-3.5,13.9-6.6,21.4-10.3-.8,4.5-3.5,6.3-6.6,8.1-13.4,7.4-24.7,17.1-35.5,27.9-13.9,13.9-28.9,26.4-47.7,33.5-6.1,2.4-12.9,2.6-19,5.6-57.9,29-115.8,57.9-173.8,86.7-18.7,9.4-37.7,21.9-56.9,31.9-.3,.8-.8,1.5-1.5,1.9-.3,.3-.6,.6-1.1,.8,6.8,1.3,12.4-5.5,16.9-8.1,34.7-19.2,70.4-36.3,105.4-55,22.7-12.1,46.6-22.6,70-33.5,16-7.4,31-18.7,47.7-22.7,26-6.1,44.8-21.8,62.9-38.9,10.3-9.8,21-19,33.5-26,4.7-2.6,10.3-5.6,9.2-11.9-1.3-7.6-2.7-15.6-11.8-18.9-6.8-2.6-13.5-2.1-20.5-1.1-14.2,2.1-26.1,8.7-37.6,16.8-12.9,8.9-26.9,9.7-40.1,2.6-16.4-8.9-28.1-5.3-32.6,13.1-4,16.3-13.5,25.1-30,28.7-43,9.2-86.1,18.7-129,28.7-52.7,12.4-99.1,36.3-136.4,76.6-10.8,11.8-23.5,20.6-39.7,24.7-57.6,14.2-115.1,28.9-172.7,43.4-6.1,1.6-12.3,2.3-18.4,.2,6.4,3.4,1.1,9.5,3.5,13.7Z"/>
        <path class="cls-3" d="M1053,1019.22c-2.3,.8-4.2-4-6.6-.3-18.1-21.8-44.8-29-68.8-40-37.2-17.1-76.3-30.8-110.9-52.9-31.1-19.8-61.4-40.6-90.6-63.2-34.5-26.6-69.2-53-100.8-83-4.5-4.2-10-6.3-16-7.6-14-3.2-23.7-11-29.8-24.8-10.2-23.1-18.5-46.8-31.9-68.5-6-9.7-4.8-22.7-10.3-33.4-1.8-3.5,.3-9.2,4.8-11,5.2-1.9,9,1.9,12.1,5.5,16.9,18.7,33.7,37.6,50.5,56.6,2.7,3.1,16.4,19.8,18.5,25.8-6.4-2.6-19.5-20.6-22.6-24.2-16-17.6-31.8-35.1-47.6-52.9-.8-1-1.5-2.1-2.4-2.9-2.1-1.9-4.4-5-7.1-3.5-3.1,1.5-1.5,5-1,7.7,1.1,6,4.5,11,7.9,16,2.1,3.1,1.9,3.1-1,7.4-1.5,2.4,0,5.2,1.3,7.1,14.8,21.1,22.4,45.8,32.7,69.2,5.5,12.3,14.2,18.9,26.4,21.9,6.4,1.6,12.9,3.2,17.4,8.9,.3,3.9,2.6,6,6.4,6.1,1.5,1.5,3.1,2.9,4.5,4.2,3.1,8.1,11.1,11.1,16.9,16.4-1.6-1.9-3.2-3.7-4.8-5.6,7.9,5.2,14.5,11.3,21,18.2,6.8,7.1,16.4,11.8,24.5,18.1,37.4,29.3,75.9,57.4,115.9,83.3,36.1,23.5,76.1,39,115.3,56.3,17.6,7.7,34.8,16.3,52.1,24.5,9.8,4.5,16.4,13.1,24,20.6Z"/>
        <path class="cls-3" d="M1591.3,1034.22c7.1-8.5,17.9-11.4,27.2-16,58.5-28.5,116.6-58,163.5-104,13.7-13.5,28.1-21.9,45.8-28.1,17.6-6.1,32.9-18.1,49.5-26.1,29.2-14.2,56.9-31,86.4-44.3,27.1-12.3,53.4-27.1,80.8-38.4,26.9-11.1,67.4-42.2,91.2-59.3,1,6.6-21.9,22.9-24.8,25.5-26.9,23.4-59.6,36.1-91.4,50.8-59,27.2-116.7,57.1-173.5,88.7-9.4,5.2-19.3,9.7-29.5,12.1-10.2,2.4-16.9,7.6-23.9,15-23.5,25.8-52.1,45.5-81.9,63.4-5,3.1-10,6.1-14.5,9.8,17.7-1.6,31.9-11.9,48.4-21.9-4,9.2-11.1,11.3-16.4,15-13.9,9.7-30.3,13.9-45.8,20.2-27.9,11.3-55.1,23.5-82.2,36.3-2.7,1.3-5.3,3.5-8.7,1.3-.2-.1-.2,0-.2,0Z"/>
        <path class="cls-3" d="M665.3,716.22c11.9,13.4,23.5,28.1,40.1,35.3,32.6,14.2,65,28.4,96.6,44.2,58.7,29.5,117.4,59,171.5,96.6,12.4,8.5,25.5,16,40.1,20.3-.6-1.9,.2-3.1,1.5-4.7,4.8-5.8,11.3-10.6,12.3-19-1.1,1.1-2.4,2.1-3.4,3.4-12.3,16.4-10.8,17.4-31.9,6.4-6.6-3.5-12.7-8.4-19.3-11.8-6.4-3.2-6.9-7.7-5.6-14,1.6-8.1,6.4-16.3-.6-24.2-2.1-2.4,.2-3.9,2.1-5.2,4.4-2.6,8.5-5.3,12.9-7.9,8.9-5.3,13.5-12.7,12.9-23.4-.6-8.9,2.7-16.4,8.5-23.2,2.3-2.7,4.7-4,8.1-2.9-6.8-7.4,.5-9.5,4.8-12.3,7.4-4.8,16.9-5.6,23.9-11.6-2.7-1.5-5.5,2.3-8.2,1.1-.6,.5-1.3,.8-1.9,1.1-1.1,1.6-3.7,1.5-5.3,2.3-19.3,10.6-34.7,23.9-34,48.7,.2,6.9-3.9,12.6-10,16.1-5.5,3.2-10.8,6.4-16.3,9.7-2.4,1.5-5.6,3.1-2.9,6.4,8.5,10.2,2.1,20.2,.5,31.3-13.4-8.2-26-16.1-38.7-23.7-31.1-18.2-63.2-35-95.3-51.3-38.5-19.7-77.2-38.7-117.5-54.3-4.7-1.8-8.9-4.5-12.9-7.7-11.1-9.4-21.6-19.5-31.3-30.5-1.5,1.8-1.9,3.5-.7,4.8Z"/>
        <path class="cls-3" d="M593.2,656.32c6.6,1.6,21.9,27.7,23.7,31.1,8.9,17.4,17.7,34.8,26.4,52.2,1.9,3.9,4.2,7.1,8.4,8.2,22.6,6.1,38.4,22.4,54.5,37.7,12.9,12.4,25.1,26,39.3,36.3,21.8,16,43,32.4,65.5,47.7,29.8,20.3,60.3,39.5,91.9,56.7,.8,.5,1.8,.8,2.4,1.5,1.3,1.5,17.9,6.6,16.3,9.8-1.6,3.4-16.6-5.2-18.1-6-11.9-6.4-23.7-13.1-35.3-20-37.4-22.2-72.9-47.2-107.4-73.7-19.8-15.2-39-30.6-56.4-48.5-9.8-10.2-21.1-19-32.4-27.4-3.1-2.3-6.1-5.3-9.7-5.8-15.8-2.4-22.9-13.4-29-26.6-7.7-16.6-30.9-55.1-40.1-73.2Z"/>
        <path class="cls-3" d="M1288.8,988.02c-2.4,1.3-5,2.6-7.4,4,.5-4.4-3.4-4.7-6-6.1-14.7-7.7-29.3-15.6-44.3-22.7-21.9-10.5-42.7-23.5-65.5-32.4-4.7,.2-3.9-3.4-4-6.1,17.7,5,32.9,15.3,49.2,23.5,26.1,12.8,51.9,26.4,78,39.8Z"/>
        <path class="cls-3" d="M1478.6,1069.92c5.6-5.6,13.4-5.3,21.4-6.8-3.4-6.3-8.9-11.3-7.9-18.7,.2,.2,.5,.3,.6,.6,11.4,17.4,12.4,17.7,33,11.9,19-5.3,37.4-12.9,55.5-20.6,3.1-1.3,18.7-10.2,22.4-8.5,0,0-8.2,9.7-11.3,8.5-1.5,2.1-4.2,1.8-6.8,2.9-33.7,15.3-69.2,26.8-106.9,30.7Z"/>
        <path class="cls-2" d="M1043.3,982.22c-1.3,5.2,8.2,6.4,4.5,12.6-2.4-6.4-7.1-9.7-13.7-11.4-18.1-5.2-36.6-9-54.2-16.1-4.7-1.9-26.4-9.5-30.5-16.4,26,11.6,69.1,22.5,93.9,31.3Z"/>
        <path class="cls-2" d="M963.8,960.12c-14.7-5-54.3-25.8-66.9-32.4,6.6-2.1,59.7,23.8,66.9,32.4Z"/>
        <path class="cls-2" d="M1106.3,914.62c1.5-1.5,3.1-2.9,4.5-4.4,10.3,2.6,21.1,3.4,31.3,7.3-.5,3.4-10.5-5.5-5.8,4.5-9.3-5.6-20.1-4.3-30-7.4Z"/>
        <path class="cls-3" d="M1829.7,900.32c-3.5,9.8-37.6,27.6-45.1,33.9-1.1,1-2.4,.8-3.2-.3-1.1-1.8,.2-2.9,1.3-3.9,6.9-6,40.1-23.9,47-29.7Z"/>
        <path class="cls-3" d="M1793.4,923.12c-6,11-47.4,39.5-54.8,45.9,.5-6.4,37.7-35.2,54.8-45.9Z"/>
        <path class="cls-3" d="M700.1,797.92c1.6,1.9,3.2,3.7,4.8,5.6-5.8-5.3-13.7-8.4-16.9-16.4,4,3.4,8.1,7.1,12.1,10.8Z"/>
        <path class="cls-2" d="M683.5,782.72c-3.9-.2-6.1-2.1-6.4-6.1,2,2.1,4.1,4,6.4,6.1Z"/>
        <path class="cls-3" d="M1269.3,1002.82c3.7-2.7,5.8-7.6,10.5-9-2.9,3.5-4.3,9-10.5,9Z"/>
      </g>
    </g>
  </g>
</svg>