<?xml version="1.0" encoding="UTF-8"?>
<svg xmlns="http://www.w3.org/2000/svg" viewBox="0 0 945.5 378.5">
  <defs>
    <style>
      .cls-1 {
        fill: #fdb52a;
      }

      .cls-2 {
        fill: #5057e2;
      }
    </style>
  </defs>
  <g id="Layer_1" data-name="Layer 1"/>
  <g id="Layer_2" data-name="Layer 2">
    <g id="Layer_1-2" data-name="Layer 1">
      <g>
        <g>
          <path class="cls-1" d="M133.6,301.3l-.02,.02s0-.01-.01-.02c-.51-2.05-1.71-3.71-4.37-4.2,.03-.07,.07-.14,.11-.2,2.59,.5,3.79,2.2,4.29,4.4Z"/>
          <path class="cls-1" d="M135.3,302.4c-.57-.29-1.14-.66-1.71-1.04,.57,.37,1.14,.66,1.71,1.04Z"/>
          <path class="cls-1" d="M147.34,309.6c-1.25,.88-2.57,1.44-4.04,1.2-3.8-.6-5.3-5.4-8-8.2l-1.8-1.1,.06-.06c.58,.38,1.16,.67,1.74,1.06,2.7,2.8,4.2,7.6,8,8.2,1.46,.24,2.76-.29,4-1.15l.04,.05Z"/>
          <path class="cls-1" d="M177.8,317v.1c-.04-.6-.08-1.2-.1-1.8,.03,.57,.06,1.13,.1,1.7Z"/>
          <path class="cls-1" d="M273.48,300.52c-.26,.54-.42,1.17-.47,1.88h-.01c.05-.7,.19-1.31,.42-1.85l.06-.03Z"/>
          <path class="cls-1" d="M285.9,296.9c-2.35,.38-4.7,.58-7.05,.76l.22-.11c2.28-.19,4.55-.39,6.83-.75,2.7-.3,3.7-1.4,2.6-3.9-.04-.1-.08-.19-.13-.29-.11-.25-.23-.49-.36-.73,.14,.24,.29,.47,.4,.71,.07,.14,.13,.27,.19,.41,1,2.5,.1,3.6-2.7,3.9Z"/>
          <path class="cls-1" d="M648.8,133.9c-.1-1.4,0-2.9,0-4.4,0,1.5-.1,3-.1,4.4,0,1.2-.1,2.6,1.9,2.6h.1c-2-.1-1.9-1.4-1.9-2.6Zm0-9.3v4.9c0-1.6,0-3.2,.1-4.9,0-1.08,.48-1.87,2-1.9-1.6-.1-2.1,.7-2.1,1.9Zm-3.5-55.5c4.6-.8,4.1-3,2.4-5.8-1.2-2-1.8-4.2-2.8-6.2-1-1.9-.8-3.6,.6-5.4,5.2-6.8,7-14.3,6.4-22.4-.16-1.85-.55-2.99-1.4-3.4,.7,.51,1.06,1.63,1.2,3.3,.6,8.1-1.2,15.6-6.4,22.4-1.4,1.8-1.6,3.5-.6,5.4,1,2,1.6,4.3,2.8,6.2,1.7,2.8,2.2,5-2.4,5.8-1.8,.3-2.7,1.4-1.3,2.9,5.1,5.7,4.5,12.5,4.7,19.1,.1,4.1-.3,8.3,.1,12.4,.4,3.9-1.8,5.2-5.8,5.7q-10.7,1.4-10.7,11.1c0,16.2,.1,32.3-.1,48.5-.08,3.1,1.02,4.86,3.74,6.11-2.48-1.25-3.54-3-3.54-6.01,.2-16.2,.1-32.3,.1-48.5,0-9.7,0-9.8,10.7-11.1,4-.5,6.2-1.8,5.8-5.7-.4-4.1,0-8.3-.1-12.4-.1-6.6,.5-13.4-4.7-19.1-1.4-1.5-.6-2.6,1.3-2.9Zm-.8,179.6c-3.9-1.8-8-3.4-11.9-5.2-.86-.4-1.91-.93-2.27-1.59,.15,.8,1.39,1.43,2.37,1.89,3.9,1.8,8,3.4,11.9,5.2,8.23,3.77,11.59,4.18,12.67,6.95-.95-3.05-4.25-3.35-12.77-7.25Zm14.89-64.78h-.01c-1.09,1.38-2.18,.98-3.08,.98-15.4-.3-30.7,1.5-46.1,.9-3.6-.2-5,.4-5.1,4.3-.8,23.7-.7,47.4-.8,71.1-.1,1.2-.7,2.3-1.1,3.4,.05,.03,.11,.06,.16,.1h.04c.4-1.2,1.1-2.3,1.1-3.4,.1-23.7,0-47.4,.8-71.1,.1-3.9,1.4-4.4,5.1-4.3,15.4,.6,30.7-1.2,46.1-.9,.9,0,2.1,.4,3.1-1-.07-.03-.14-.06-.21-.08Zm4.38-48.18c-.08,.02-.17,.03-.26,.04,.08-.01,.16-.02,.24-.03,.02,0,.04,0,.05,0,.08-.01,.16-.03,.24-.05,.05,0,.1-.03,.15-.04,.1-.03,.17-.08,.25-.12-.19,.09-.4,.16-.67,.21Zm.72-.23s.06-.03,.09-.04c.09-.04,.17-.1,.24-.17,.04-.04,.08-.09,.12-.14-.12,.14-.27,.25-.45,.35Zm59.01,56.89c-.06-.33-.15-.65-.26-.94,.06,.2,.12,.42,.16,.64,.3,1.48,.62,2.77,.99,3.91-.32-1.06-.62-2.26-.89-3.61Zm53.41-23.5h0c-.8,.2-1.6,.7-2.4,.7-15.7-.1-31.4,.7-47.1-.5-4.18-.29-8.46-.02-13.48,0-.04,.06-.08,.13-.12,.2,5.2,0,9.6-.3,13.9,0,15.7,1.2,31.4,.4,47.1,.5,.8,0,1.6-.4,2.4-.7-.1-.07-.19-.13-.29-.2Zm8.54,56.4c.72,2.31,.84,4.85,.35,7.6-.5,3.4-1.9,6.6-1.3,10.1,.02,0,.04-.03,.06-.04-.47-3.37,.86-6.47,1.34-9.76,.52-2.87,.35-5.51-.45-7.9Zm46.74,9.59c-1.23-1.63-1.77-3.13-1.81-4.54-.04,1.4,.43,2.91,1.59,4.53h0c.07,0,.15,.02,.22,.02h-.01Zm11.51-31.1c-.02-.23-.03-.45-.04-.66,0,.3,0,.62,.04,.96,.06,.56,.09,1.12,.1,1.66,0-.64-.03-1.3-.1-1.96Zm21.9-16.2c-8,.9-9.3-.1-9.3-7.1-.1,7.1,1.3,8,9.3,7.2,2.15-.27,3.74-1.02,3.9-2.69-.22,1.6-1.79,2.33-3.9,2.59Zm3.88-4.32c.14-2.22,1.16-4.46,1.27-6.68-.14,2.22-1.16,4.46-1.27,6.68Z"/>
          <path class="cls-1" d="M908.4,170.5c-13.2,.3-26.3,.3-39.4-.3-8.5-.4-17-3.2-25.3,1.1-1.2,.6-3,.3-4.5,.5,.3,1.8-1,2.7-2.5,3.5-6.7,3.5-13.5,7-20.3,10.5-1.7,.9-3.6,.8-5.5,.8-6.5,0-12.9-.1-19.4,.1-4.9,.2-7-2-7.2-5.7-.2-3-1.4-5.8-2.3-8.6-.8-2.3-2.3-3.6-5.09-3.5,.1,.07,.19,.13,.29,.2-.8,.3-1.6,.7-2.4,.7-15.7-.1-31.4,.7-47.1-.5-4.3-.3-8.7,0-13.9,0,.04-.07,.08-.14,.12-.2h-.42c2.6-4.5,7.7-4.4,10-7.3-10.4-.1-20.8-.3-31.2-.2-4.8,.1-6.8-1.5-6.7-5.7,.2-9.6,.1-19.2,.1-28.8,.1-2.7-.1-5.7,1.6-7.8,4.2-5.1,1.3-8.9-2.6-12.4-2.4-2.2-3.3-4.5-3.3-7.5,0-4.1-.4-8.2-.6-12.3-.8-8.3-4.1-16.5,.8-24.7,1.2-1.9,1.7-4.2,2.9-6.1,1.5-2.4,.7-4.1-1.1-6-7.5-8.1-14.8-16.2-22.2-24.3-1.9-2.1-3.1-4.4-3.6-7.2-1.1-5.9-1.5-12-4-18.8-2.8,9.5-2.2,18.6-7.1,26.6,1.9-1.06,3.16-1.28,3.97-.71h0s.01,0,.02,0c.85,.41,1.24,1.55,1.4,3.4,.6,8.1-1.2,15.6-6.4,22.4-1.4,1.8-1.6,3.5-.6,5.4,1,2,1.6,4.2,2.8,6.2,1.7,2.8,2.2,5-2.4,5.8-1.9,.3-2.7,1.4-1.3,2.9,5.2,5.7,4.6,12.5,4.7,19.1,.1,4.1-.3,8.3,.1,12.4,.4,3.9-1.8,5.2-5.8,5.7-10.7,1.3-10.7,1.4-10.7,11.1,0,16.2,.1,32.3-.1,48.5,0,3.01,1.06,4.76,3.54,6.01,.13,.06,.27,.13,.41,.19,.42,.18,.86,.34,1.35,.5,7.4,2.5,14.5,5.5,21.9,8.4t-.01,.02c.07,.02,.14,.05,.21,.08-1,1.4-2.2,1-3.1,1-15.4-.3-30.7,1.5-46.1,.9-3.7-.1-5,.4-5.1,4.3-.8,23.7-.7,47.4-.8,71.1,0,1.1-.7,2.2-1.1,3.4h-.04c5,3,7.69,7.74,12.04,11.2,2.1,1.6,3.9,2.4,6.8,1.9,9.4-1.5,18.9-2.8,28.3-4.1,4-.5,6-2.2,6.4-6.1,.59-6.28,1-9.53,.4-11.57-.01-.02-.02-.05-.03-.08-1.08-2.77-4.44-3.18-12.67-6.95-3.9-1.8-8-3.4-11.9-5.2-.98-.46-2.22-1.09-2.37-1.89v-.02c-.26-.49-.12-1.05,.77-1.69,5.6-4,5.6-9.2,5.1-14.6-.4-4.6,1.6-7.4,5.7-10.5,4.6-3.4,8.9-7.8,9.7-13.6,.4-2.8,2.4-3.4,5.1-4.1,8.4-2.3,17.3-3.2,25.3-6.8,3-1.3,5.6-2.7,7.3-5.3,1.8-2.8,4.6-4.2,8.4-4,8,.3,16,.7,22.3,6,1.52,1.25,2.72,2.42,3.24,4.16,.11,.29,.2,.61,.26,.94,.27,1.35,.57,2.55,.89,3.61,.06,.19,.12,.37,.18,.55,0,.04,.03,.08,.04,.12,2.33,6.58,6.38,7.6,16.99,9.52,11.6,2.2,23.4,4,34,9,5.06,2.4,8.36,5.73,9.75,9.82,.03,.1,.06,.19,.1,.28,.8,2.39,.97,5.03,.45,7.9-.48,3.29-1.81,6.39-1.34,9.76,0,.11,.02,.23,.04,.34-.06,1.65-.33,3.19-.77,4.65-.04,.14-.09,.28-.14,.42-2.02,6.11-7.13,10.7-12.29,15.23-4.65,4.07-8.72,8.31-10.47,13.37-.05,.13-.09,.26-.13,.38-.82,2.71-.97,5.66-.2,8.95,.4,1.9,.1,3.9,.1,5.8,0,5.7,.6,6.3,7,4.6,8.9-2.4,17.7-4.7,27.1-4,3.98,.35,7.17-.07,8.41-3.49h0c.12-.38,.22-.77,.29-1.21,.04-.2,.09-.39,.17-.58,0-.02,.01-.04,.02-.07,.58-1.92,2.82-3.33,4.71-4.65,3.26-2.3,5.95-4.72,7.2-7.84,.07-.18,.14-.36,.19-.53,.48-1.56,.62-3.28,.31-5.23-.13-.82-.05-1.62,.2-2.35,0-.06,.02-.12,.05-.18,.8-2.71,3.83-4.67,7.25-4.67,1.6,0,3.3,.7,4.9,1.1,11.2,2.7,18.8,.2,22.4-7.4,.2-.43,.38-.86,.53-1.28,.04-.11,.08-.22,.11-.33,1.73-5.82-1.42-10.86-8.64-12.39-4.7-1-8.3-2.7-10.7-6.4-.08-.1-.16-.21-.22-.31h0c-1.16-1.63-1.63-3.14-1.59-4.54v-.04c-.09-3.23,2.47-5.94,5.32-8.51,5.05-4.59,8.06-9.76,8.1-15.93v-.11c-.01-.54-.04-1.1-.1-1.66-.03-.34-.04-.66-.04-.96v-.18c0-3.21,1.7-4.69,5.94-6.26,9-3.3,19-4.7,26.3-11.4,3.1-2.8,8.7-.6,12.8,.4,4,.9,6.8,.6,9.7-1.9,2.9-2.5,6.3-4.5,9.4-6.8,3.2-2.4,6.3-3.2,10-.6,4.9,3.5,10.2,6.5,15.2,9.8,2.6,1.8,4.6,2.1,6.7-.7,1.5-2.1,3.7-3.8,5.6-5.7v-9.8c-12.3-.3-24.5,.4-36.9,.5Zm-255.4-36.4c-.06,.76-.21,1.51-.78,1.96-.08,.07-.17,.13-.26,.18-.08,.04-.16,.08-.25,.11-.1,.04-.2,.07-.31,.09-.06,.02-.12,.03-.19,.03-.07,.02-.14,.02-.22,.02-.09,0-.19,.02-.29,0h-.1c-2,0-1.9-1.4-1.9-2.6,0-1.4,.1-2.9,.1-4.4v-4.9c0-1.2,.5-2,2.1-1.9,.05,0,.1,0,.15,.01,.08,0,.16,0,.24,.02,.1,0,.19,.02,.28,.05,.07,.02,.14,.03,.21,.06,.05,0,.1,.03,.14,.05,.84,.33,1.08,1.06,1.08,1.91,0,3.1,.1,6.2,0,9.3Zm12.24,.36c-.01,.09-.03,.17-.06,.25-.02,.09-.06,.17-.1,.24s-.08,.15-.14,.21c-.04,.05-.08,.1-.12,.14-.07,.07-.15,.13-.24,.17-.11,.08-.24,.13-.39,.18-.05,.01-.1,.03-.15,.04-.08,.02-.16,.04-.24,.05-.01,0-.03,0-.05,0-.08,.01-.16,.02-.24,.03-.1,0-.2,.02-.31,.02-.17,0-.32,0-.46-.01-.09,0-.19-.02-.27-.04-2.27-.42-1.29-3.4-1.47-5.05-.2-2-3-5.3,1.2-5.8,5-.6,2,3.6,3.2,5.5-.68,1.11,.05,2.85-.16,4.06Zm204.26,49.84s0,.07,0,.1c.01,.09,.02,.19,.02,.28,0,.12,0,.23-.02,.33-.16,1.67-1.75,2.42-3.9,2.69-8,.8-9.4-.1-9.3-7.2,0-.5-.1-1.1,0-1.9,.2-6.5,5.4-9.4,12.3-6.8,.2,.1,.4,.1,.5,.2,1.13,1.22,1.57,2.46,1.64,3.71,.02,.3,.02,.59,0,.89-.11,2.22-1.13,4.46-1.27,6.68-.02,.34-.02,.68,.02,1.02Z"/>
          <path class="cls-2" d="M579.42,255.23c.17-.32,.41-.64,.58-.93,.03-.06,.06-.13,.09-.19-.21,.35-.51,.74-.67,1.12Zm-16.22-87.13c-5.8,.1-11.1-.8-16.1-3.4-7.1-3.7-13.8-4.6-21.3,.2-5.8,3.7-12.8,6-19.3,9-1,.5-2.1,1.2-3.3,.7-.4-.17-.66-.38-.83-.62,.14,.32,.42,.6,.93,.82,1.2,.5,2.3-.2,3.3-.7,6.5-2.9,13.5-5.3,19.3-9,7.5-4.7,14.2-3.9,21.3-.2,5,2.6,10.3,3.5,16.1,3.4,17.43-.2,34.86-.1,53.75-.1,.15-.07,.3-.13,.45-.2-19.1,0-36.7-.1-54.3,.1Zm66.4,1.7c0,.1-.1,.2-.1,.3,.1-.1,.2-.2,.1-.3Zm15.7-100.7c4.6-.8,4.1-3,2.4-5.8-1.2-2-1.8-4.2-2.8-6.2-1-1.9-.8-3.6,.6-5.4,5.2-6.8,7-14.3,6.4-22.4-.16-1.85-.55-2.99-1.4-3.4,.7,.51,1.06,1.63,1.2,3.3,.6,8.1-1.2,15.6-6.4,22.4-1.4,1.8-1.6,3.5-.6,5.4,1,2,1.6,4.3,2.8,6.2,1.7,2.8,2.2,5-2.4,5.8-1.8,.3-2.7,1.4-1.3,2.9,5.1,5.7,4.5,12.5,4.7,19.1,.1,4.1-.3,8.3,.1,12.4,.4,3.9-1.8,5.2-5.8,5.7q-10.7,1.4-10.7,11.1c0,16.2,.1,32.3-.1,48.5-.08,3.1,1.02,4.86,3.74,6.11-2.48-1.25-3.54-3-3.54-6.01,.2-16.2,.1-32.3,.1-48.5,0-9.7,0-9.8,10.7-11.1,4-.5,6.2-1.8,5.8-5.7-.4-4.1,0-8.3-.1-12.4-.1-6.6,.5-13.4-4.7-19.1-1.4-1.5-.6-2.6,1.3-2.9Zm14.09,114.82h-.01c-1.09,1.38-2.18,.98-3.08,.98-15.4-.3-30.7,1.5-46.1,.9-3.6-.2-5,.4-5.1,4.3-.8,23.7-.7,47.4-.8,71.1-.1,1.2-.7,2.3-1.1,3.4,.05,.03,.11,.06,.16,.1h.04c.4-1.2,1.1-2.3,1.1-3.4,.1-23.7,0-47.4,.8-71.1,.1-3.9,1.4-4.4,5.1-4.3,15.4,.6,30.7-1.2,46.1-.9,.9,0,2.1,.4,3.1-1-.07-.03-.14-.06-.21-.08Z"/>
          <path class="cls-2" d="M945.3,180.1c-1.9,1.9-4.1,3.6-5.6,5.7-2.1,2.8-4.1,2.5-6.7,.7-5-3.3-10.3-6.3-15.2-9.8-3.7-2.6-6.8-1.8-10,.6-3.1,2.3-6.5,4.3-9.4,6.8-2.9,2.5-5.7,2.8-9.7,1.9-4.1-1-9.7-3.2-12.8-.4-7.3,6.7-17.3,8.1-26.3,11.4-4.1,1.52-5.83,2.95-5.94,5.96v.18c0,.21,.02,.43,.04,.66,.07,.66,.1,1.32,.1,1.96v.11c.06,6.3-2.97,11.56-8.1,16.23-2.76,2.49-5.24,5.12-5.32,8.21v.04c.04,1.41,.58,2.91,1.81,4.54,.04,0,.07,0,.11,0,2.4,3.7,6,5.4,10.7,6.4,7.34,1.56,10.47,6.74,8.54,12.69-.03,.11-.07,.22-.11,.33-.17,.52-.38,1.05-.63,1.58-3.6,7.6-11.2,10.1-22.4,7.4-1.6-.4-3.3-1.1-4.9-1.1-3.29,0-6.22,1.81-7.15,4.37-.03,.06-.04,.12-.05,.18-.17,.65-.21,1.34-.1,2.05,.33,2.08,.15,3.9-.41,5.53-.05,.17-.12,.35-.19,.53-1.19,3.26-3.93,5.77-7.3,8.14-1.79,1.26-3.89,2.57-4.61,4.35,0,.03-.02,.05-.02,.07-.03,.09-.05,.19-.07,.28-.09,.56-.22,1.06-.39,1.5h0c-1.16,3.7-4.42,4.16-8.51,3.8-9.4-.7-18.2,1.6-27.1,4-6.4,1.7-7,1.1-7-4.6,0-1.9,.3-3.9-.1-5.8-.8-3.41-.61-6.46,.3-9.25,.04-.12,.08-.25,.13-.38,1.69-5.2,5.83-9.52,10.57-13.67,5.08-4.45,10.1-8.97,12.19-14.93,.05-.14,.1-.28,.14-.42,.44-1.46,.71-3,.77-4.65-.02-.11-.04-.23-.04-.34-.02,0-.04,.03-.06,.04-.6-3.5,.8-6.7,1.3-10.1,.49-2.75,.37-5.29-.35-7.6-.04-.09-.07-.18-.1-.28-1.45-3.96-4.71-7.18-9.65-9.52-10.6-5-22.4-6.8-34-9-10.77-1.95-14.78-2.97-17.09-9.82-.01-.04-.03-.08-.04-.12-.06-.18-.12-.36-.18-.55-.37-1.14-.69-2.43-.99-3.91-.04-.22-.1-.44-.16-.64-.56-1.58-1.71-2.68-3.14-3.86-6.3-5.3-14.3-5.7-22.3-6-3.8-.2-6.6,1.2-8.4,4-1.7,2.6-4.3,4-7.3,5.3-8,3.6-16.9,4.5-25.3,6.8-2.7,.7-4.7,1.3-5.1,4.1-.8,5.8-5.1,10.2-9.7,13.6-4.1,3.1-6.1,5.9-5.7,10.5,.5,5.4,.5,10.6-5.1,14.6-.71,.51-.94,.97-.87,1.39v.02c.36,.66,1.41,1.19,2.27,1.59,3.9,1.8,8,3.4,11.9,5.2,8.52,3.9,11.82,4.2,12.77,7.25,.01,.03,.02,.06,.03,.08,.6,2.04,.19,5.29-.4,11.57-.4,3.9-2.4,5.6-6.4,6.1-9.4,1.3-18.9,2.6-28.3,4.1-2.9,.5-4.7-.3-6.8-1.9-4.35-3.46-7.04-8.2-12.04-11.2-.05-.04-.11-.07-.16-.1,.4-1.1,1-2.2,1.1-3.4,.1-23.7,0-47.4,.8-71.1,.1-3.9,1.5-4.5,5.1-4.3,15.4,.6,30.7-1.2,46.1-.9,.9,0,1.99,.4,3.08-.98-7.33-2.88-14.35-5.84-21.68-8.32-.56-.19-1.08-.39-1.55-.6-.14-.06-.28-.13-.41-.19-2.72-1.25-3.82-3.01-3.74-6.11,.2-16.2,.1-32.3,.1-48.5q0-9.7,10.7-11.1c4-.5,6.2-1.8,5.8-5.7-.4-4.1,0-8.3-.1-12.4-.2-6.6,.4-13.4-4.7-19.1-1.4-1.5-.5-2.6,1.3-2.9,4.6-.8,4.1-3,2.4-5.8-1.2-1.9-1.8-4.2-2.8-6.2-1-1.9-.8-3.6,.6-5.4,5.2-6.8,7-14.3,6.4-22.4-.14-1.67-.5-2.79-1.2-3.3,0,0,0,0-.02,0h0c-.8-.37-1.99-.1-3.77,.81-.1,.9-.7,1.6-1.7,2-7.5,8.4-14.9,16.8-22.5,25.1-2.1,2.3-2.7,4.3-.6,6.7,6.7,7.6,7.3,16.2,6.4,25.2,.1,3.1,0,6.2,.4,9.3,.4,3.3-1,5.4-4,7.5-6.7,4.6-6.9,4.3-2.8,10.4,.6,.8,1.1,1.9,1.1,2.9,.4,11.8,1.1,23.6,1,35.4,0,7.3-3,9.2-11.3,9-31.4-.8-62.8-1.8-94.2-1.8-3.5,0-6.9,.2-10.3,.1-3.7-.2-5.3,1-5.2,4.3,.1,3.1,.3,6.2-.5,9.3-.19,.63-.38,1.29-.14,1.85,0,.01,0,.02,0,.03,.17,.24,.43,.45,.83,.62,1.2,.5,2.3-.2,3.3-.7,6.5-3,13.5-5.3,19.3-9,7.5-4.8,14.2-3.9,21.3-.2,5,2.6,10.3,3.5,16.1,3.4,17.6-.2,35.2-.1,54.3-.1-.15,.07-.3,.13-.45,.2h.55c-9.9,4.3-18.8,7.6-27.8,10.5-5,1.6-6.8,4.3-6.9,8.7-.2,11.6-.6,23.3-1,35,.97,7.87,6.19,15.55,2.27,23.68,3.73-8.06-1.41-15.68-2.37-23.48-7-2.3-12.9-6.4-19.4-9.7-3.1-1.5-6-4.3-9.6-3.5-9.8,2.2-20.4,2.2-29.1,7.6-2.5,1.6-5.2,2.9-8.5,2.7-5.84-.58-10.56,.99-14.29,4.37-.21,.18-.42,.38-.61,.59-.46,.45-.89,.93-1.3,1.44h-.03c-.06,.06-.11,.13-.17,.2h.3c-.9,2.5-2.9,3.3-5.8,3.5-4.2,.2-7.9,1.7-11.6,3.3-4.5,1.9-5.9,4.4-4.4,8.9,1.6,5,4.6,10.2,2.5,15.5-.3,.73-.46,1.33-.5,1.81,0-.52,.16-1.18,.5-2.01,2.1-5.3-1-10.5-2.8-15.3-1.4-4.5-.1-7,4.4-8.9,3.7-1.6,7.5-3.1,11.6-3.3,2.9-.2,4.9-1,5.8-3.5-22.4-.1-44.9-.1-67.3-.2-3.67,0-5.48-.27-6.14-1.61-.01-.01-.01-.03-.02-.04,0-.01-.02-.03-.03-.05-.54-.94-.44-2.43,0-4.8,.6-3.5,1.2-7,1.6-10.5,.3-2.5,1.5-3.6,4.5-3.7,10.2-.5,20.4-1.3,30.6-1.6,4.5-.1,6.7-1.1,6.2-5.3-.3-2.27-.01-4.64,.09-7.01l-.19-.19c-3.9,2.8-8.5,3.3-13.4,2.9-17.3-1.1-34.6-2.4-51.8-4.9-3.4-.5-7-1.6-10.4,.4,5-.7,8.8,1.8,13.1,3.3,7.3,2.5,14.5,5.1,21.7,7.6-.1,.4-.1,.7-.2,1.1-3.8-.3-7.7-.2-11.5-.9-4.3-.8-7.5-.4-8.9,3.6-.7,2-2.5,2.2-4.5,2.2-11.3,0-22.5,1.3-33.7,1-4.2-.1-8.5,.5-12.7,.8-25.7-.7-51.4,1.3-77.1-1.4-10.5-1.1-21.2-2.7-32-2.4-3.5,.1-7-1-10.5-1.5-1.5,.1-3,.2-4.5,.3,.09,.97,.18,1.94,.26,2.91,14.88,1.19,29.76,2.29,44.64,3.39,10.2,.7,20.4,1.4,30.5,2,2.32,.09,4.32,.26,4.72,2.42,.12,.36,.18,.78,.18,1.28-.18,11.24,.45,22.57-.15,33.83l3.75,.27-2.45,4.9c1.43,1.86,2.33,3.77,2.65,5.73-.4-1.89-1.34-3.72-2.76-5.51l-9.26,18.53-.11,.22-4.69,9.37c.17,.35,.24,.63,.21,.86,.08,.65-.41,.95-1.18,1.09l-1.91,3.81-7.69,4.09c.07,.14,.13,.27,.19,.41,1,2.5,.1,3.6-2.7,3.9-2.35,.38-4.7,.58-7.05,.76l-5.37,2.86c-.26,.54-.42,1.17-.47,1.88-.01,.03-.01,.07-.01,.1-1.83,2.99-4.5,3.19-8.09,2.57l-.26,.14-16.55,8.79-17.78,2.07h-.03l-72.19,8.43-10.76-14.9c-1.25,.88-2.57,1.44-4.04,1.2-3.8-.6-5.3-5.4-8-8.2l-1.8-1.1,.06-.06s-.04-.03-.06-.04c0,0,.07-.07,.07-.1-.51-2.05-1.71-3.71-4.37-4.2,.03-.07,.07-.14,.11-.2h-.01c-3.2,.4-5.5,1.6-6,4.6-.2,4.3-.3,8.5-.5,12.8-.1,3.2-1.6,6.4,.1,9.5,.04,0,.09,0,.13-.01,.96,0,2.01-.28,2.87,.01,1.6,.5,3.9,.8,3.5,3-.1,.59-.33,1.05-.66,1.4,.27-.33,.46-.76,.56-1.3,.4-2.2-1.8-2.5-3.5-3-.83-.28-1.84-.04-2.77,0-.08,0-.15,0-.23,0-.3,.2-.6,.4-.9,.7,.1,.2,.1,.4,.2,.6,.4,1.2,.4,2.3,0,3.3,.04,.01,.08,.02,.12,.02l.12,.12h.69v1.09c-.21-.26-.43-.53-.69-.79-.08-.08-.16-.16-.24-.24-.69,1.76-2.52,2.95-4.57,3.56l-.03-.06c-.4,.1-.8,.2-1.1,.2-3.1,.4-6.3-.8-7.5-4.1-.1-.3-.3-.6-.4-.9,.04,.32,.07,.67,.08,1.05-.02-.34-.05-.66-.08-.95-.3-.5-.7-.9-1.1-1.3-.1,.1-.3,.3-.4,.4,.78,1.27,.89,2.63,.53,4h-4.73c-1.5,4.1,1,8.3-.8,12.3,.2,.2,.4,.3,.7,.5,.03,.07,.06,.14,.1,.2-.2-.2-.5-.3-.7-.5-2.8-.1-5,1.6-7.9,1.7-3.49,0-6.52-.36-8.48-2.27,1.97,1.74,4.91,2.07,8.28,2.07,2.9-.1,5.1-1.8,7.9-1.7,1.8-4-.6-8.2,.7-12.3,0-5.1-3-6.9-9.6-5.9-3.2,.5-7.9,2.4-9.4,1.2-6.2-4.8-11.7,.6-17.5,.2-4.1-.3-7.4,2.3-3.8,6.7,.4,.6-.1,1.7-.1,2.6,.01,.08,.01,.17,.02,.25-.91,.17-1.81,.27-2.72,.45-.05,.25-.12,.48-.2,.7h-.01c-3.09-.71-1.29-3.1-1.99-4.6-.1-1.3-.5-2.5-1.1-3.5h-.5c-2.2,.6-4.4,1.2-6.6,1.9,.01,.04,.02,.08,.02,.12-1.37,.4-2.74,.79-4.02,1.28v.08s-.07,.03-.1,.04v-.12c-.25,.09-.5,.18-.75,.27,0,.02,.01,.05,.02,.08-.27,.06-.53,.1-.8,.2-2,.71-4.01,1.43-5.97,2.25-.72,.32-1.38,.58-2.03,.88-.04-.02-.08-.03-.12-.03-.44-.05-.84,.39-1.15,.64-1.19,.97-2.66,1.57-4.02,2.29-.98,.52-1.96,1.04-2.94,1.57-1.29,.68-2.58,1.37-3.84,2.11-1.33,.78-2.64,1.63-3.89,2.53-.55,.4-1.07,.85-1.69,1.13-.38,.17-.78,.26-1.16,.43-1.4,.63-2.68,1.76-3.95,2.63-1.36,.93-2.73,1.86-4.11,2.76-2.79,1.81-5.64,3.54-8.6,5.06,.3,.4,1,.7,1.9,.9,1.1-1.2,2.7-1.9,4.7-1.8,27.3,.1,54.6,1.9,81.7,4.3,48.2,4.3,96.5,7.9,144.7,12.3,23.3,2.1,45.6,4.4,68.8,.5,20.1-3.3,40.2-8,60.8-6.7,1-.1,2,0,3,.2h.3c2.4,.2,4.5,1.5,5.8,3.2,.7,.4,1.5,.7,2.3,1.1,4.3,0,8.6,.1,12.9,.2,28.3,.7,56.6,2.5,84.9,2.5,11.9,0,24-.1,35.7-2,3.7-.6,8.2-1.6,10.8-2.7,2.09-.95,1.56-.82,2.8-1.76-.16,.07,.14-.34,.2-.14,0,.04,0,.1,0,.2,.4-3.4,4.1-7.3,8.7-5.7,6.4,2.2,12.7,4.4,19.2,6.4,15-.6,30.2,1.6,44.1,6.6,.2,.1,.4,.2,.7,.3,1.7-.5,3.4-.9,5-1.2,17.1-3.4,34.9-1,52.2-1.4,4.5-.1,8.9-.3,13.3-.8,3.2-.7,6.5-1.3,9.8-1.9,.1,0,.2-.1,.3-.1-.37-1.17-.7-2.38-.92-3.61h.02c.2,1.13,.5,2.22,.9,3.31,.8-.2,1.6-.4,2.4-.7,7-2.3,13.8-6.1,21.2-7.4,3.57-.59,7.43-1.19,11.2-1.39v.29c2.6-.1,5.2-.1,7.7,.1,4.2,.4,7.6,2,11.4,3.5,26,10.1,52.2,1.1,78.6-1.2,3.12-.28,6.23-.48,9.35-.49,.18,.07,.37,.13,.55,.19,5.3-.1,10.7,.3,16,1.3,4.7,.9,9.3,2,13.8,3.3,.28,0,.57,.02,.85,.05-.28-.09-.57-.17-.85-.25,.6,0,1.2,.1,1.8,.1,11.6,.3,22.7,2.3,33.4,6.1,2.8,1,5.6,1.4,7.2-1.2,3.7-6,10.2-8.2,16.8-10.1,3.94-1.07,5.59-2.88,5.78-5.8-.13,2.97-1.78,4.84-5.78,6-6.6,1.9-13.2,4.2-16.8,10.1-1.6,2.6-4.4,2.2-7.2,1.2-10.7-3.8-21.8-5.9-33.4-6.1-.32,0-.62-.03-.94-.05,7.8,2.24,15.42,4.83,23.14,7.05,12.2-.1,24.5,.7,36.7,1.7,.06-.03,.13-.05,.19-.08-.06,0-.13,0-.19-.02,.9-.35,1.77-.75,2.61-1.2-.78,.45-1.57,.86-2.41,1.22,12.53,1.09,25.07,2.38,37.5,3.28v-3.1c0-16.57,.1-33.23,.1-49.8-11.44,.3-22.69-2.27-34.23-1.71-.06,.07-.11,.14-.17,.21-2.73,1.04-4.1,2.57-4.19,4.71,0-2.25,1.37-3.84,4.19-4.91,.06,0,.11,0,.17,0,.03-.03,.05-.07,.08-.1,11.51-.55,22.73,2.01,34.15,1.71v-1.8c.1-27.3,.2-54.6,.2-81.9,0-20.6-.1-41.2-.2-61.7Zm-316-10.5c.1,.1,.3,.1,.3,.2,.1,.1,0,.2-.1,.3h-.4c.1-.2,.1-.3,.2-.5ZM47.73,334.68s-.08-.05-.12-.08h.09s.05,.03,.07,.04c0,.02-.03,.03-.04,.04Zm8.6,2.87s-.07-.02-.1-.02c.05,0,.1,0,.15,.02h-.05Zm1.07,1.45s-.06-.04-.09-.05c0-.02,0-.04,.01-.05,.05,.02,.09,.05,.14,.08-.02,.01-.04,.01-.06,.02Zm79.74-6.38c-.23,.1-.46,.18-.7,.26v.04h-.15c.05-.01,.1-.03,.15-.04v-.2c.26-.08,.51-.17,.76-.28,.02-.03,.03-.05,.04-.08-.02,.1-.05,.2-.1,.3Zm12.32,12.19c-.31-1.4-1.98-1.25-2.46-2.11l-.03-.09s-.03-.06-.04-.09c-.46-1.27-.87-2.55-1.08-3.83,.23,1.28,.65,2.55,1.12,3.82,0,0,.02-.01,.03-.01,.5,.9,2.3,.7,2.5,2.3,0,0-.03,0-.04,0Zm163.24-74.71v-.1s.01-.08,.01-.12c.07-.5,.38-.9,.99-1.08,.1,.7-.3,1.1-1,1.3Zm195.1,3.3c-6,2.1-11.9,4.3-18,6.2-2.1,.65-3.47,1.35-3.53,2.61-.08-1.38,1.32-2.12,3.53-2.81,6.1-1.9,12-4.1,18-6.2,1.56-.61,3.49-1.29,3.73-2.88-.07,1.74-2.02,2.45-3.73,3.08Zm3.7-3.7c-.3-1.9-2.5-2.2-4.3-2.6-8.1-1.8-16.2-3.6-24.3-5.2-2.25-.47-3.72-.81-3.6-2.54,.03,1.56,1.51,1.89,3.6,2.34,8.1,1.7,16.2,3.5,24.3,5.2,1.8,.4,4,.6,4.3,2.6,.04,.21,.05,.4,.04,.58,0-.12-.02-.25-.04-.38Zm68.5-15.4c-.17,.29-.41,.61-.58,.93,.16-.38,.46-.77,.67-1.12-.03,.06-.06,.13-.09,.19Zm129.5,57.09s-.07,0-.1,0v-.1h.1v.09Zm21.49,1.92s-.06,0-.09,0h-.02s.01-.08,.01-.12c.04,0,.07,0,.11,.02,0,.04,0,.07,0,.11Zm75.8,24.38c-.04-.12-.07-.24-.09-.36-.01-.05-.02-.09-.02-.13,.03,.16,.07,.33,.11,.49Zm-1.71,21.16c1.24,.24,1.96,1.13,2.02,3.15-.11-2.01-.82-2.89-2.02-3.15Z"/>
          <path class="cls-2" d="M646.7,26.7c-.2,1-.8,1.6-1.8,1.9,0-1.1,.6-1.7,1.8-1.9Z"/>
          <path class="cls-2" d="M149.5,344.8s-.03,0-.04,0c-.31-1.4-1.98-1.25-2.46-2.11l-.03-.09s-.03-.06-.04-.09c-.46-1.27-.87-2.55-1.08-3.83,.23,1.28,.65,2.55,1.12,3.82,0,0,.02-.01,.03-.01,.5,.9,2.3,.7,2.5,2.3Z"/>
          <path class="cls-2" d="M311.82,214.12c-.56-1.78-2.45-1.94-4.62-2.02-10.1-.6-20.3-1.3-30.5-2-14.9-1.1-29.8-2.2-44.7-3.4,0-.13-.02-.26-.04-.39,14.88,1.19,29.76,2.29,44.64,3.39,10.2,.7,20.4,1.4,30.5,2,2.32,.09,4.32,.26,4.72,2.42Z"/>
          <path class="cls-2" d="M315.8,260.13c-.4-1.89-1.34-3.72-2.76-5.51l.11-.22c1.43,1.86,2.33,3.77,2.65,5.73Z"/>
          <path class="cls-2" d="M468.3,198.7c.5,4.2-1.7,5.2-6.2,5.3-10.2,.3-20.4,1.1-30.6,1.6-3,.1-4.2,1.2-4.5,3.7-.4,3.5-1,7-1.6,10.5-.4,2.2-.51,3.66-.09,4.6-.54-.94-.44-2.43,0-4.8,.6-3.5,1.2-7,1.6-10.5,.3-2.5,1.5-3.6,4.5-3.7,10.2-.5,20.4-1.3,30.6-1.6,4.5-.1,6.7-1.1,6.2-5.3-.3-2.27-.01-4.64,.09-7.01l.11,.11c-.1,2.4-.4,4.8-.1,7.1Z"/>
          <path class="cls-2" d="M499.1,226.3c-.9,2.5-2.9,3.3-5.8,3.5-4.2,.2-7.9,1.7-11.6,3.3-4.5,1.9-5.9,4.4-4.4,8.9,1.6,5,4.6,10.2,2.5,15.5-.3,.73-.46,1.33-.5,1.81,0-.52,.16-1.18,.5-2.01,2.1-5.3-1-10.5-2.8-15.3-1.4-4.5-.1-7,4.4-8.9,3.7-1.6,7.5-3.1,11.6-3.3,2.9-.2,4.9-1,5.8-3.5h.3Z"/>
          <path class="cls-2" d="M511.53,270.32c-.07,1.74-2.02,2.45-3.73,3.08-6,2.1-11.9,4.3-18,6.2-2.1,.65-3.47,1.35-3.53,2.61-.08-1.38,1.32-2.12,3.53-2.81,6.1-1.9,12-4.1,18-6.2,1.56-.61,3.49-1.29,3.73-2.88Z"/>
          <path class="cls-1" d="M307.1,211.7c-10.1-.6-20.3-1.3-30.5-2-14.88-1.1-29.76-2.2-44.64-3.39,.02,.13,.03,.26,.04,.39,14.9,1.2,29.8,2.3,44.7,3.4,10.2,.7,20.4,1.4,30.5,2,2.17,.08,4.06,.24,4.62,2.02-.4-2.16-2.4-2.33-4.72-2.42Zm-5.69,18.52c1.1,.17,1.37,.97,1.29,1.98-.19,4.43,.17,8.86-.61,13.2-.01,.01,0,.02,0,.02,0,.16,0,.32,.01,.48,.9-4.5,.5-9.1,.7-13.7,0-1.03-.29-1.84-1.39-1.98Zm-.46,15.98c.18-.01,.35-.02,.52-.05,.18-.03,.36-.08,.53-.15v-.1c-.35,.18-.7,.27-1.05,.3Z"/>
          <path class="cls-1" d="M617.05,168.2c-9.72,4.3-18.49,7.44-27.35,10.3-4.9,1.6-6.8,4.3-6.9,8.7-.2,11.7-.6,23.4-1,35-7-2.3-12.9-6.4-19.4-9.7-3.1-1.5-6-4.3-9.6-3.5-9.8,2.2-20.4,2.2-29.1,7.6-2.44,1.56-5.06,2.83-8.25,2.71-.02,.06-.04,.13-.05,.19-5.94-.59-10.73,1.05-14.49,4.57-.21,.18-.42,.38-.61,.59-.46,.44-.9,.92-1.33,1.44-22.49-.1-45.08-.1-67.57-.2-3.5,0-5.3-.25-6.04-1.41-.01-.01-.01-.03-.02-.04,0-.01-.02-.03-.03-.05-.42-.94-.31-2.4,.09-4.6,.6-3.5,1.2-7,1.6-10.5,.3-2.5,1.5-3.6,4.5-3.7,10.2-.5,20.4-1.3,30.6-1.6,4.5-.1,6.7-1.1,6.2-5.3-.3-2.3,0-4.7,.1-7.1l-.11-.11s.01-.06,.01-.09c14.8-2.2,29.5-4.4,44.2-6.7,1.77-.28,3.2-.28,4.02,.31-.77-.79-2.27-.81-4.22-.51-14.7,2.3-29.5,4.5-44.2,6.7l-.3-.3c8-5.4,15.9-11.2,24.2-16.2,4.9-3,7.4-6.4,6.9-11.4-.5-4.4,1.6-6.3,6.8-5.9,4.3,.4,8.6-.5,12.7,.8-3.4,0-6.8,.2-10.3,.1-3.7-.2-5.3,1-5.2,4.3,.1,3.1,.3,6.2-.5,9.3-.21,.7-.42,1.45-.04,2.05,0,.01,0,.02,0,.03,.14,.32,.42,.6,.93,.82,1.2,.5,2.3-.2,3.3-.7,6.5-2.9,13.5-5.3,19.3-9,7.5-4.7,14.2-3.9,21.3-.2,5,2.6,10.3,3.5,16.1,3.4,17.43-.2,34.86-.1,53.75-.1Z"/>
          <path class="cls-1" d="M617.5,168c-.15,.07-.3,.13-.45,.2-18.89,0-36.32-.1-53.75,.1-5.8,.1-11.1-.8-16.1-3.4-7.1-3.7-13.8-4.5-21.3,.2-5.8,3.7-12.8,6.1-19.3,9-1,.5-2.1,1.2-3.3,.7-.51-.22-.79-.5-.93-.82,.17,.24,.43,.45,.83,.62,1.2,.5,2.3-.2,3.3-.7,6.5-3,13.5-5.3,19.3-9,7.5-4.8,14.2-3.9,21.3-.2,5,2.6,10.3,3.5,16.1,3.4,17.6-.2,35.2-.1,54.3-.1Z"/>
          <path class="cls-2" d="M177.7,315.3c.02,.6,.06,1.2,.1,1.8v-.1c-.04-.57-.07-1.13-.1-1.7Zm-30.4-5.75c-1.24,.86-2.54,1.39-4,1.15-3.8-.6-5.3-5.4-8-8.2-.58-.39-1.16-.68-1.74-1.06l-.06,.06,1.8,1.1c2.7,2.8,4.2,7.6,8,8.2,1.47,.24,2.79-.32,4.04-1.2l-.04-.05Zm-13.73-8.25s.01,0,.01,.02l.02-.02h-.03Z"/>
          <path class="cls-2" d="M313.15,254.4l-.11,.22c1.42,1.79,2.36,3.62,2.76,5.51-.32-1.96-1.22-3.87-2.65-5.73Zm-14.17,28.34l-.05,.1-.81,1.63c.63-.14,1.04-.39,1.07-.87,.03-.23-.04-.51-.21-.86Z"/>
          <path class="cls-2" d="M228.82,247.64l-22.97,2.56h-.03l-1.08,.12h-.01c-1.75,.02-3.5,.05-5.26,.08h-.17s-.02-.03-.02-.05c-.01-.01-.02-.03-.03-.05-.08-.16-.13-.33-.05-.5-.8-3.4,1.3-5.3,4.5-6.6,6.8-2.7,13.5-5.6,20.5-8.1,2.5-1,4.4-2.4,5.6-4.7,.66,5.78-.99,11.48-.98,17.24Z"/>
          <path class="cls-2" d="M273.48,300.52c-.26,.54-.42,1.17-.47,1.88h-.01c.05-.7,.19-1.31,.42-1.85l.06-.03Z"/>
          <path class="cls-2" d="M285.9,296.9c-2.35,.38-4.7,.58-7.05,.76l.22-.11c2.28-.19,4.55-.39,6.83-.75,2.7-.3,3.7-1.4,2.6-3.9-.04-.1-.08-.19-.13-.29-.11-.25-.23-.49-.36-.73,.14,.24,.29,.47,.4,.71,.07,.14,.13,.27,.19,.41,1,2.5,.1,3.6-2.7,3.9Z"/>
          <path class="cls-2" d="M299.19,283.6c-.02-.21-.1-.46-.26-.76l.05-.1c.17,.35,.24,.63,.21,.86Z"/>
          <path class="cls-2" d="M200.93,250.74l-2.33,.26-6.25,5.93c-.72-3.48,.6-4.3,6.75-7.13,0,.17,0,.33,.06,.5t.01,.02s.02,.05,.03,.08c.58,.17,1.15,.28,1.73,.34Z"/>
          <path class="cls-2" d="M189.23,259.88l-.2,.19c-.01-.06-.02-.11-.03-.17,.08,0,.15,0,.23-.02Z"/>
          <path class="cls-2" d="M182.2,274h-.12s-.05-.07-.08-.1c.03,0,.07-.02,.1-.02,.03,.04,.07,.08,.1,.12Z"/>
          <path class="cls-2" d="M133.6,301.3h-.03c-.51-2.05-1.71-3.71-4.37-4.2,.03-.07,.07-.14,.11-.2,2.59,.5,3.79,2.2,4.29,4.4Z"/>
          <path class="cls-2" d="M182.2,274h-.12s-.05-.07-.08-.1c.03,0,.07-.02,.1-.02,.03,.04,.07,.08,.1,.12Z"/>
          <path class="cls-2" d="M391.1,190.4c-.7,1.1-1.8,1.7-3.2,1.7,.5-1.4,1.7-1.8,3.2-1.7Z"/>
          <path class="cls-2" d="M229.9,226c.6,.6,.6,1.2-.1,1.7-.5-.6-.5-1.2,.1-1.7Z"/>
          <path class="cls-2" d="M135.3,302.4c-.57-.29-1.14-.66-1.71-1.04,.57,.37,1.14,.66,1.71,1.04Z"/>
          <path class="cls-2" d="M392.2,189.6c-.3,.3-.7,.5-1,.8,.3-.3,.6-.5,1-.8Z"/>
          <path class="cls-2" d="M709.5,311.3v.09s-.07,0-.1,0v-.1h.1Z"/>
          <path class="cls-2" d="M731,313.2s0,.07,0,.11c-.03,0-.06,0-.09,0h-.02s.01-.08,.01-.12c.04,0,.07,0,.11,.02Z"/>
          <path class="cls-2" d="M807.1,362c-.11-2.01-.82-2.89-2.02-3.15,1.24,.24,1.96,1.13,2.02,3.15Z"/>
          <path class="cls-2" d="M910.11,374c-.78,.45-1.57,.86-2.41,1.22h-.01c-.06,0-.13,0-.19-.02,.9-.35,1.77-.75,2.61-1.2Z"/>
          <path class="cls-2" d="M47.77,334.64s-.03,.03-.04,.04c-.04-.02-.08-.05-.12-.08h.09s.05,.03,.07,.04Z"/>
          <path class="cls-2" d="M56.38,337.55h-.05s-.07-.02-.1-.02c.05,0,.1,0,.15,.02Z"/>
          <path class="cls-2" d="M47.77,334.64s-.03,.03-.04,.04c-.04-.02-.08-.05-.12-.08h.09s.05,.03,.07,.04Z"/>
          <path class="cls-2" d="M56.38,337.55h-.05s-.07-.02-.1-.02c.05,0,.1,0,.15,.02Z"/>
          <path class="cls-2" d="M499.1,226.3c-.9,2.5-2.9,3.3-5.8,3.5-4.2,.2-7.9,1.7-11.6,3.3-4.5,1.9-5.9,4.4-4.4,8.9,1.6,5,4.6,10.2,2.5,15.5-.3,.73-.46,1.33-.5,1.81,0-.52,.16-1.18,.5-2.01,2.1-5.3-1-10.5-2.8-15.3-1.4-4.5-.1-7,4.4-8.9,3.7-1.6,7.5-3.1,11.6-3.3,2.9-.2,4.9-1,5.8-3.5h.3Z"/>
          <path class="cls-2" d="M500.3,224.66c-.46,.45-.89,.93-1.3,1.44h-.03c.43-.52,.87-1,1.33-1.44Z"/>
          <path class="cls-2" d="M511.53,270.32c-.07,1.74-2.02,2.45-3.73,3.08-6,2.1-11.9,4.3-18,6.2-2.1,.65-3.47,1.35-3.53,2.61-.08-1.38,1.32-2.12,3.53-2.81,6.1-1.9,12-4.1,18-6.2,1.56-.61,3.49-1.29,3.73-2.88Z"/>
          <path class="cls-2" d="M580.09,254.11c-.03,.06-.06,.13-.09,.19-.17,.29-.41,.61-.58,.93,.16-.38,.46-.77,.67-1.12Z"/>
          <path class="cls-2" d="M657.27,255.95c-1.08-2.77-4.44-3.18-12.67-6.95-3.9-1.8-8-3.4-11.9-5.2-.98-.46-2.22-1.09-2.37-1.89,.36,.66,1.41,1.19,2.27,1.59,3.9,1.8,8,3.4,11.9,5.2,8.52,3.9,11.82,4.2,12.77,7.25Z"/>
          <path class="cls-2" d="M724.39,196.01c-.37-1.14-.69-2.43-.99-3.91-.04-.22-.1-.44-.16-.64,.11,.29,.2,.61,.26,.94,.27,1.35,.57,2.55,.89,3.61Z"/>
          <path class="cls-2" d="M783.69,248.37c-2.02,6.11-7.13,10.7-12.29,15.23-4.65,4.07-8.72,8.31-10.47,13.37,1.69-5.2,5.83-9.52,10.57-13.67,5.08-4.45,10.1-8.97,12.19-14.93Z"/>
          <path class="cls-2" d="M785.9,233.2c-.48,3.29-1.81,6.39-1.34,9.76-.02,0-.04,.03-.06,.04-.6-3.5,.8-6.7,1.3-10.1,.49-2.75,.37-5.29-.35-7.6,.8,2.39,.97,5.03,.45,7.9Z"/>
          <path class="cls-2" d="M803.67,287.42c-.03,.09-.05,.19-.07,.28-.09,.56-.22,1.06-.39,1.5,.12-.37,.22-.76,.29-1.2,.04-.2,.09-.39,.17-.58Z"/>
          <path class="cls-2" d="M709.5,311.3v.09s-.07,0-.1,0v-.1h.1Z"/>
          <path class="cls-2" d="M731,313.2s0,.07,0,.11c-.03,0-.06,0-.09,0h-.02s.01-.08,.01-.12c.04,0,.07,0,.11,.02Z"/>
          <path class="cls-2" d="M806.79,337.69c-.04-.12-.07-.24-.09-.36-.01-.05-.02-.09-.02-.13,.03,.16,.07,.33,.11,.49Z"/>
          <path class="cls-2" d="M815.79,274.33c.48-1.56,.62-3.28,.31-5.23-.13-.82-.05-1.62,.2-2.35-.17,.65-.21,1.34-.1,2.05,.33,2.08,.15,3.9-.41,5.53Z"/>
          <path class="cls-2" d="M843.8,205.76c-.01-.54-.04-1.1-.1-1.66-.03-.34-.04-.66-.04-.96,0,.21,.02,.43,.04,.66,.07,.66,.1,1.32,.1,1.96Z"/>
          <path class="cls-2" d="M851.54,253.99c1.73-5.82-1.42-10.86-8.64-12.39-4.7-1-8.3-2.7-10.7-6.4-.08-.1-.16-.21-.22-.31h0c-1.16-1.63-1.63-3.14-1.59-4.54,.04,1.41,.58,2.91,1.81,4.54,.04,0,.07,0,.11,0,2.4,3.7,6,5.4,10.7,6.4,7.34,1.56,10.47,6.74,8.54,12.69Z"/>
          <path class="cls-2" d="M911.78,355.4c-.13,2.97-1.78,4.84-5.78,6-6.6,1.9-13.2,4.2-16.8,10.1-1.6,2.6-4.4,2.2-7.2,1.2-10.7-3.8-21.8-5.9-33.4-6.1-.32,0-.62-.03-.94-.05h0c-.28-.09-.57-.17-.85-.25,.6,0,1.2,.1,1.8,.1,11.6,.3,22.7,2.3,33.4,6.1,2.8,1,5.6,1.4,7.2-1.2,3.7-6,10.2-8.2,16.8-10.1,3.94-1.07,5.59-2.88,5.78-5.8Z"/>
          <path class="cls-2" d="M911.07,323.89c-.06,.07-.11,.14-.17,.21-2.73,1.04-4.1,2.57-4.19,4.71,0-2.25,1.37-3.84,4.19-4.91,.06,0,.11,0,.17,0Z"/>
          <path class="cls-2" d="M910.11,374c-.78,.45-1.57,.86-2.41,1.22h-.01c-.06,0-.13,0-.19-.02,.9-.35,1.77-.75,2.61-1.2Z"/>
          <path class="cls-2" d="M911.78,355.4c-.13,2.97-1.78,4.84-5.78,6-6.6,1.9-13.2,4.2-16.8,10.1-1.6,2.6-4.4,2.2-7.2,1.2-10.7-3.8-21.8-5.9-33.4-6.1-.32,0-.62-.03-.94-.05h0c-.28-.09-.57-.17-.85-.25,.6,0,1.2,.1,1.8,.1,11.6,.3,22.7,2.3,33.4,6.1,2.8,1,5.6,1.4,7.2-1.2,3.7-6,10.2-8.2,16.8-10.1,3.94-1.07,5.59-2.88,5.78-5.8Z"/>
          <path class="cls-2" d="M911.07,323.89c-.06,.07-.11,.14-.17,.21-2.73,1.04-4.1,2.57-4.19,4.71,0-2.25,1.37-3.84,4.19-4.91,.06,0,.11,0,.17,0Z"/>
          <path class="cls-2" d="M731,313.2s0,.07,0,.11c-.03,0-.06,0-.09,0h-.02s.01-.08,.01-.12c.04,0,.07,0,.11,.02Z"/>
          <path class="cls-2" d="M807.1,362c-.11-2.01-.82-2.89-2.02-3.15,1.24,.24,1.96,1.13,2.02,3.15Z"/>
          <path class="cls-2" d="M806.79,337.69c-.04-.12-.07-.24-.09-.36-.01-.05-.02-.09-.02-.13,.03,.16,.07,.33,.11,.49Z"/>
          <path class="cls-1" d="M783.69,248.37c-2.02,6.11-7.13,10.7-12.29,15.23-4.65,4.07-8.72,8.31-10.47,13.37,1.69-5.2,5.83-9.52,10.57-13.67,5.08-4.45,10.1-8.97,12.19-14.93Z"/>
          <path class="cls-1" d="M803.67,287.42c-.03,.09-.05,.19-.07,.28-.09,.56-.22,1.06-.39,1.5,.12-.37,.22-.76,.29-1.2,.04-.2,.09-.39,.17-.58Z"/>
          <path class="cls-1" d="M815.79,274.33c.48-1.56,.62-3.28,.31-5.23-.13-.82-.05-1.62,.2-2.35-.17,.65-.21,1.34-.1,2.05,.33,2.08,.15,3.9-.41,5.53Z"/>
          <path class="cls-1" d="M851.54,253.99c1.73-5.82-1.42-10.86-8.64-12.39-4.7-1-8.3-2.7-10.7-6.4-.08-.1-.16-.21-.22-.31h0c.07,0,.15,0,.22,0,.04,0,.07,0,.11,0,2.4,3.7,6,5.4,10.7,6.4,7.34,1.56,10.47,6.74,8.54,12.69Z"/>
          <path class="cls-2" d="M777.2,169.1c-.8,.3-1.6,.7-2.4,.7-15.7-.1-31.4,.7-47.1-.5-4.3-.3-8.7,0-13.9,0,.04-.07,.08-.14,.12-.2,2.54-4.3,7.61-4.24,9.78-7.1,12.7-.1,25.3-.3,38-.1,6.17,.1,10.61,3.84,15.2,7h.01c.1,.07,.19,.13,.29,.2Z"/>
          <path class="cls-2" d="M869.5,184.4c0,.09,.02,.19,.02,.28,0,.12,0,.23-.02,.33-.16,1.67-1.75,2.42-3.9,2.69-8,.8-9.4-.1-9.3-7.2v-1.8c.3-6.6,5.4-9.4,12.3-6.8,.2,.1,.4,.1,.5,.2,1.1,1.19,1.55,2.4,1.64,3.61,.02,.3,.02,.59,0,.89-.11,2.22-1.13,4.46-1.27,6.68-.02,.34-.02,.68,.02,1.02,0,.03,0,.07,0,.1Z"/>
          <path class="cls-2" d="M652.9,134.1c0,.73-.15,1.49-.68,1.96-.08,.07-.17,.13-.26,.18-.08,.04-.16,.08-.25,.11-.27,.11-.6,.17-1.01,.15h-.1c-2,0-1.9-1.4-1.9-2.6,0-1.4,.1-2.9,.1-4.4v-4.9c0-1.2,.5-2,2.1-1.9,.05,0,.1,0,.15,0,.08,0,.16,0,.24,.02,.1,0,.19,.02,.28,.05,.07,.02,.14,.03,.21,.06,.05,.01,.1,.03,.14,.05,.76,.34,.98,1.1,.98,1.91,0,3.1,.1,6.2,0,9.3Z"/>
          <path class="cls-2" d="M665.24,134.46c-.01,.09-.03,.17-.06,.25-.18,.57-.63,.98-1.67,1.07-.1,.01-.2,.02-.31,.02-.17,.01-.32,0-.46,0-.09-.01-.19-.02-.27-.04-2.19-.44-1.29-3.41-1.47-5.05-.2-2-3-5.3,1.2-5.8,5-.6,2,3.6,3.2,5.5-.68,1.11,.05,2.85-.16,4.06Z"/>
          <path class="cls-2" d="M629.5,170.1h-.4c.1-.2,.1-.3,.2-.5,.1,.1,.3,.1,.3,.2,.1,.1,0,.2-.1,.3Z"/>
          <path class="cls-2" d="M709.5,311.3v.09s-.07,0-.1,0v-.1h.1Z"/>
          <path class="cls-1" d="M468.3,198.7c.5,4.2-1.7,5.2-6.2,5.3-10.2,.3-20.4,1.1-30.6,1.6-3,.1-4.2,1.2-4.5,3.7-.4,3.5-1,7-1.6,10.5-.4,2.2-.51,3.66-.09,4.6-.54-.94-.44-2.43,0-4.8,.6-3.5,1.2-7,1.6-10.5,.3-2.5,1.5-3.6,4.5-3.7,10.2-.5,20.4-1.3,30.6-1.6,4.5-.1,6.7-1.1,6.2-5.3-.3-2.27-.01-4.64,.09-7.01l.11,.11c-.1,2.4-.4,4.8-.1,7.1Z"/>
          <path class="cls-1" d="M500.3,224.66c-.46,.45-.89,.93-1.3,1.44h-.03c.43-.52,.87-1,1.33-1.44Z"/>
          <path class="cls-2" d="M147,342.6s-.02,.01-.03,.01c-.01-.03-.03-.06-.04-.09-.46-1.27-.87-2.55-1.08-3.83,.23,1.28,.65,2.55,1.12,3.82l.03,.09Z"/>
          <path class="cls-2" d="M149.5,344.8s-.03,0-.04,0c-.31-1.4-1.98-1.25-2.46-2.11l-.03-.09s-.03-.06-.04-.09c.01,0,.03,0,.04,0s.02-.01,.03-.01c.5,.9,2.3,.7,2.5,2.3Z"/>
          <path class="cls-2" d="M122.34,328.64h0c.26,.26,.48,.51,.69,.77v-.77h-.69Zm13.95,4.28h.15v-.04c-.05,0-.1,.03-.15,.04Z"/>
          <path class="cls-2" d="M47.77,334.64s-.03,.03-.04,.04c-.04-.02-.08-.05-.12-.08h.09s.05,.03,.07,.04Z"/>
          <path class="cls-2" d="M56.38,337.55h-.05s-.07-.02-.1-.02c.05,0,.1,0,.15,.02Z"/>
          <path class="cls-2" d="M57.32,338.9s-.01,.03-.01,.05c.03,.01,.06,.03,.09,.05,.02,0,.04,0,.06-.02-.05-.03-.09-.06-.14-.08Z"/>
          <path class="cls-2" d="M313.7,268.8c.1,.7-.3,1.1-1,1.3v-.1s.01-.08,.01-.12c.07-.5,.38-.9,.99-1.08Z"/>
          <path class="cls-2" d="M302.8,232.2c-.2,4.6,.2,9.2-.7,13.7-.01-.16-.01-.32-.01-.48,0,0-.01,0,0-.02-.14-4.44,.55-9.06-.99-13.4-.23,.12-.44,.23-.62,.35-.43,.28-.68,.54-.68,.75-.11,2.42-.16,4.83-.18,7.24-.01,.81-.01,1.62-.01,2.43,0,1.07,0,2.15,0,3.23-.17-.48-.3-.96-.41-1.44-.04-.16-.08-.33-.1-.5-.03-.14-.06-.28-.08-.42-.05-.31-.1-.62-.13-.94-.02-.15-.03-.31-.05-.46-.02-.22-.03-.45-.04-.67-.03-.45-.04-.91-.04-1.37,0-.39,.01-.78,.02-1.17,.01-.2,.01-.4,.02-.6,.1-2.16,.3-4.32,.21-6.43-.1-1,.5-1.7,1.8-1.8,.14-.01,.27-.01,.39,0,.08,0,.15,0,.22,.02,1.1,.14,1.39,.95,1.39,1.98Z"/>
          <path class="cls-2" d="M302,245.9v.1c-.17,.07-.35,.12-.53,.15-.17,.03-.34,.04-.52,.05-.1,0-.19,0-.29,0-.07,0-.14,0-.21,0-.08,0-.17-.01-.25-.03-.2-.04-.4-.1-.6-.17,0-1.08,0-2.16,0-3.23,0-.81,0-1.62,.01-2.43,0-2.4,.03-4.78,.08-7.14,0-.31,.24-.56,.78-.85,.15-.08,.32-.16,.52-.25,1.69,4.47,.81,9.23,1,13.8Z"/>
          <path class="cls-2" d="M205.82,250.2l-1.08,.12h-.01l-3.34,.37h-.01c-.64-.04-1.28-.13-1.91-.29-.06,0-.13-.03-.19-.05-.04-.01-.07-.02-.11-.03-.02,0-.05,0-.07-.02h.15c2.2-.04,4.39-.07,6.57-.1Z"/>
          <path class="cls-2" d="M47.77,334.64s-.03,.03-.04,.04c-.04-.02-.08-.05-.12-.08h.09s.05,.03,.07,.04Z"/>
        </g>
        <path class="cls-1" d="M177.8,317v.1c-.04-.6-.08-1.2-.1-1.8,.03,.57,.06,1.13,.1,1.7Z"/>
        <path class="cls-1" d="M184.17,264.67c-1.08,1.17-2.25,2.27-3.45,3.27l3.45-3.27Z"/>
        <path class="cls-1" d="M182.2,274h-.12s-.05-.07-.08-.1c.03,0,.07-.02,.1-.02,.03,.04,.07,.08,.1,.12Z"/>
        <path class="cls-1" d="M285.41,280.64v.07s0-.02-.01-.04c.01,0,.01-.02,.01-.03Z"/>
        <path class="cls-1" d="M288.41,292.59l-.04,.02c-.11-.25-.23-.49-.36-.73,.14,.24,.29,.47,.4,.71Z"/>
        <path class="cls-1" d="M297.5,261.7s-.07,0-.2,.05v-.05h.2Z"/>
        <path class="cls-1" d="M311.85,249.23h-.12c.63-11.45,0-22.88,.17-34.23,0-.33-.03-.62-.08-.88-.56-1.78-2.45-1.94-4.62-2.02-10.1-.6-20.3-1.3-30.5-2-14.9-1.1-29.8-2.2-44.7-3.4,0-.13-.02-.26-.04-.39-.02,0-.04,0-.06,0-1,6.5-2,13.1-1.6,19.9,.6,.6,.6,1.2-.1,1.7,0,1-.1,1.9-.1,2.8,.65,5.67-.93,11.27-.98,16.91l-.3,.03-22.97,2.56h-.03l-1.08,.12h-.01l-3.34,.37h-.01l-.45,.05-2.33,.26-6.25,5.93-3.12,2.95-.2,.19-.07,.06-4.78,4.53h-.01c-1.08,1.18-2.25,2.28-3.45,3.28l-.02,.02-6.31,5.98-.1,.1c-1.01,.06-1.96,.06-2.99,.06-11.1,5.9-24.1,10-32.1,19-1.1,1.2-2.6,2.2-4.2,2.7-.4,.8-1.2,.6-2,.3-.7,0-1.4-.1-2.1-.4-.73,.09-1.21,.52-1.59,1.2,2.59,.5,3.79,2.2,4.29,4.4l-.02,.02s.01,.03,.01,.04c.57,.37,1.14,.66,1.71,1.04-.57-.29-1.14-.66-1.71-1.04,0,0,.01,.03,.01,.04l-.04,.04c.58,.38,1.16,.67,1.74,1.06,2.7,2.8,4.2,7.6,8,8.2,1.46,.24,2.76-.29,4-1.15l.04,.05,10.76,14.9,72.19-8.42h.03l17.78-2.08,16.55-8.79,.26-.14c3.59,.62,6.26,.42,8.09-2.57,0-.03,0-.07,.01-.1h-.01c.05-.7,.19-1.31,.42-1.85l.06-.03,5.37-2.86,.22-.11c2.28-.19,4.55-.39,6.83-.75,2.7-.3,3.7-1.4,2.6-3.9-.04-.1-.08-.19-.13-.29-.11-.25-.23-.49-.36-.73,.14,.24,.29,.47,.4,.71l7.69-4.09,1.91-3.81,.11-.22,.81-1.63,.05-.1,4.69-9.37,.11-.22,9.26-18.53,.11-.22,2.45-4.9-3.75-.27Zm-134.05,67.87c-.04-.6-.08-1.2-.1-1.8,.03,.57,.06,1.13,.1,1.7v.1Zm4.28-43.1s-.05-.07-.08-.1c.03,0,.07-.02,.1-.02,.03,.04,.07,.08,.1,.12h-.12Zm103.33,6.71s0-.02-.01-.04c.01-.01,.01-.02,.01-.03v.07Zm11.89-18.96v-.05h.2s-.07,0-.2,.05Zm4.8-15.85c-.01-.16-.01-.32-.01-.48-.03,.17-.06,.31-.09,.48v.1c-.17,.07-.35,.12-.53,.15-.27,.06-.54,.08-.81,.06-.07,0-.14,0-.21-.01-.08,0-.17-.01-.25-.03-.2-.04-.4-.1-.6-.17-.17-.48-.3-.96-.41-1.44-.04-.16-.08-.33-.1-.5-.03-.14-.06-.28-.08-.42-.05-.31-.1-.62-.13-.94-.02-.15-.03-.31-.05-.46-.02-.22-.03-.45-.04-.67-.03-.45-.04-.91-.04-1.37,0-.39,.01-.78,.02-1.17,.01-.2,.01-.4,.02-.6,.07-2.16,.25-4.32,.11-6.43,0-1,.5-1.7,1.8-1.8h.1c.14-.01,.27-.01,.39,0,.08,0,.15,.01,.22,.02,1.1,.14,1.39,.95,1.39,1.98-.2,4.6,.2,9.2-.7,13.7Z"/>
      </g>
    </g>
  </g>
</svg>