<?xml version="1.0" encoding="UTF-8"?>
<svg xmlns="http://www.w3.org/2000/svg" viewBox="0 0 769.9 777.28">
  <defs>
    <style>
      .cls-1 {
        fill: #fdb52a;
      }
    </style>
  </defs>
  <g id="Layer_1" data-name="Layer 1"/>
  <g id="Layer_2" data-name="Layer 2">
    <g id="Layer_1-2" data-name="Layer 1">
      <g>
        <path class="cls-1" d="M384.95,0C172.35,0,0,174,0,388.64s172.35,388.64,384.95,388.64,384.95-174,384.95-388.64S597.56,0,384.95,0Zm0,699.55c-170.08,0-307.96-139.2-307.96-310.91S214.87,77.73,384.95,77.73s307.96,139.2,307.96,310.91-137.88,310.91-307.96,310.91Z"/>
        <path class="cls-1" d="M384.95,134.21c-139.18,0-252.02,113.91-252.02,254.43s112.83,254.43,252.02,254.43,252.02-113.91,252.02-254.43-112.83-254.43-252.02-254.43Zm0,457.98c-111.35,0-201.61-91.13-201.61-203.55s90.27-203.55,201.61-203.55,201.61,91.13,201.61,203.55-90.27,203.55-201.61,203.55Z"/>
      </g>
    </g>
  </g>
</svg>