<?xml version="1.0" encoding="UTF-8"?><svg xmlns="http://www.w3.org/2000/svg" viewBox="0 0 120.27 36.54"><defs><style>.d{fill:#fff;}</style></defs><g id="a"/><g id="b"><g id="c"><g><path class="d" d="M41.6,9.2c0-.54-.1-.99-.29-1.34-.2-.35-.45-.63-.75-.84-.3-.21-.63-.36-.98-.45-.35-.09-.67-.14-.98-.14s-.63,.05-.98,.14c-.35,.09-.67,.23-.98,.43-.3,.2-.55,.48-.75,.84s-.29,.82-.29,1.36v13.57l5.99-7.44v-6.13h0Z"/><path class="d" d="M35.61,28.35c.24,.39,.53,.73,.86,1,.3,.24,.63,.44,.98,.59,.35,.15,.72,.23,1.11,.23,.76,0,1.41-.33,1.95-1l14.48-18.02c.42-.51,.63-1.06,.63-1.63,0-.48-.14-.93-.41-1.34-.27-.41-.57-.75-.91-1.02-.3-.24-.63-.43-.98-.57-.35-.14-.7-.2-1.07-.2-.75,0-1.41,.33-1.95,1l-14.44,18.02c-.42,.54-.63,1.1-.63,1.68,0,.45,.12,.88,.36,1.27"/><path class="d" d="M54.81,24.77l-4.86-4.4-3.77,4.68,4.58,4.17c.39,.36,.79,.59,1.18,.68s.77,.1,1.14,.02c.36-.08,.69-.21,1-.41,.3-.2,.55-.4,.73-.61,.18-.21,.36-.48,.54-.82,.18-.33,.29-.69,.34-1.07s0-.75-.11-1.14c-.12-.38-.38-.75-.77-1.11"/><path class="d" d="M74.03,20.14c-.38-.61-.75-1.1-1.11-1.5-.36-.39-.59-.63-.68-.73l-9.44-10.62c-.33-.36-.67-.61-1.02-.75s-.7-.18-1.07-.14c-.36,.05-.7,.15-1.02,.32s-.61,.35-.89,.57c-.24,.21-.47,.47-.68,.77s-.35,.63-.43,1c-.07,.36-.07,.73,.02,1.11,.09,.38,.3,.77,.63,1.16l8.49,9.53c.63,.76,1.03,1.32,1.18,1.68,.15,.36,.23,.73,.23,1.09,0,.27-.13,.63-.39,1.07-.26,.44-.72,.66-1.38,.66-.45,0-.83-.1-1.14-.29s-.57-.45-.82-.75c-.24-.3-.47-.62-.68-.95s-.45-.65-.73-.95c-.27-.3-.61-.55-1-.75-.39-.2-.88-.29-1.45-.29-1.24,0-2.12,.38-2.66,1.14-.53,.76-.79,1.6-.79,2.54,0,.7,.15,1.34,.45,1.93,.3,.59,.69,1.1,1.16,1.54,.47,.44,.98,.79,1.52,1.04,.54,.26,1.06,.39,1.54,.39l8.94,.05c.42,0,.91-.08,1.45-.25,.54-.17,1.06-.45,1.54-.84,.48-.39,.89-.92,1.23-1.59,.33-.66,.5-1.48,.5-2.45s-.16-1.81-.47-2.61c-.32-.8-.67-1.5-1.04-2.11"/><path class="d" d="M73.91,12.1c.36-.18,.64-.41,.84-.68s.34-.57,.43-.91c.09-.33,.14-.67,.14-1,0-.3-.05-.64-.14-1.02s-.24-.72-.45-1.02-.49-.56-.84-.77-.79-.32-1.34-.32h-7.49l5.31,5.99h2.18c.54,0,1-.09,1.36-.27"/><path class="d" d="M91.83,20.73c.36-.18,.64-.41,.84-.7,.2-.29,.34-.59,.43-.93,.09-.33,.14-.65,.14-.95s-.05-.62-.14-.96c-.09-.33-.24-.63-.45-.91s-.49-.5-.84-.68c-.35-.18-.79-.27-1.34-.27h-4.68v5.67h4.68c.55,0,1-.09,1.36-.27"/><path class="d" d="M83,29.76c.29-.21,.52-.48,.7-.82,.18-.33,.27-.76,.27-1.27V6.43h-5.99V27.67c0,.51,.09,.94,.27,1.27s.42,.61,.73,.82c.3,.21,.63,.36,1,.45,.36,.09,.71,.14,1.04,.14s.67-.05,1.02-.14c.35-.09,.66-.24,.95-.45"/><path class="d" d="M92.64,7.34c-.21-.27-.49-.5-.84-.68s-.79-.27-1.34-.27h-4.68v5.67h4.68c.55,0,1-.09,1.36-.27,.36-.18,.64-.41,.84-.7,.2-.29,.34-.6,.43-.93s.13-.65,.13-.95-.05-.62-.13-.95c-.09-.33-.24-.63-.45-.91"/><path class="d" d="M85.79,29.99h4.68c.55,0,1-.09,1.36-.27,.36-.18,.64-.41,.84-.7,.2-.29,.34-.6,.43-.93,.09-.33,.13-.65,.13-.95s-.05-.62-.13-.95c-.09-.33-.24-.63-.45-.91s-.49-.5-.84-.68c-.35-.18-.79-.27-1.34-.27h-4.68v5.67h0Z"/><path class="d" d="M113.88,7.38c-.21-.27-.49-.5-.84-.68-.35-.18-.79-.27-1.34-.27h-14.44c-.54,0-.99,.09-1.34,.27-.35,.18-.63,.41-.84,.68-.21,.27-.36,.57-.45,.91-.09,.33-.14,.65-.14,.95s.05,.62,.14,.95c.09,.33,.23,.64,.43,.93,.2,.29,.48,.52,.84,.7,.36,.18,.82,.27,1.36,.27h14.44c.54,0,1-.09,1.36-.27,.36-.18,.64-.41,.84-.7,.2-.29,.34-.6,.43-.93,.09-.33,.14-.65,.14-.95s-.05-.62-.14-.95c-.09-.33-.24-.63-.45-.91"/><path class="d" d="M106.5,29.76c.29-.21,.52-.48,.7-.82,.18-.33,.27-.76,.27-1.27V13.96h-5.99v13.71c0,.51,.09,.94,.27,1.27s.42,.61,.73,.82,.63,.36,1,.45c.36,.09,.71,.14,1.04,.14s.67-.05,1.02-.14c.35-.09,.66-.24,.95-.45"/><path class="d" d="M29.99,26.47V10.05c0-2.14-1.72-3.88-3.84-3.88H9.84c-2.12,0-3.84,1.73-3.84,3.87V26.48c0,2.14,1.72,3.87,3.84,3.87h4.63v-10.08h-5.76l9.29-11.42,9.33,11.42h-5.84v10.08h4.66c2.12,0,3.84-1.74,3.84-3.88"/><path class="d" d="M120.27,6.43V30.11c0,3.55-2.88,6.43-6.43,6.43H6.43c-3.55,0-6.43-2.88-6.43-6.43V6.43C0,2.88,2.88,0,6.43,0H113.85c3.55,0,6.43,2.88,6.43,6.43M6.43,33.87H113.85c2.08,0,3.76-1.68,3.76-3.76V6.43c0-2.08-1.68-3.76-3.76-3.76H6.43c-2.08,0-3.76,1.68-3.76,3.76V30.11c0,2.08,1.68,3.76,3.76,3.76"/></g></g></g></svg>