<svg width="173" height="25" viewBox="0 0 173 25" fill="none" xmlns="http://www.w3.org/2000/svg">
<path d="M4.472 17.312V5.888H8.168V17.312H4.472ZM0.392 13.352V9.848H12.224V13.352H0.392ZM21.5214 24.872C20.9134 24.872 20.3374 24.808 19.7934 24.68C19.2334 24.568 18.7534 24.408 18.3534 24.2L19.5054 20.96C19.9214 21.216 20.3934 21.344 20.9214 21.344C21.3214 21.344 21.6414 21.208 21.8814 20.936C22.1374 20.664 22.2654 20.232 22.2654 19.64V6.992H26.8254V19.664C26.8254 21.248 26.3614 22.512 25.4334 23.456C24.5054 24.4 23.2014 24.872 21.5214 24.872ZM24.5454 5.552C23.7134 5.552 23.0414 5.32 22.5294 4.856C22.0174 4.392 21.7614 3.816 21.7614 3.128C21.7614 2.44 22.0174 1.864 22.5294 1.4C23.0414 0.935999 23.7134 0.704 24.5454 0.704C25.3774 0.704 26.0494 0.927999 26.5614 1.376C27.0734 1.808 27.3294 2.368 27.3294 3.056C27.3294 3.776 27.0734 4.376 26.5614 4.856C26.0654 5.32 25.3934 5.552 24.5454 5.552ZM36.2889 20.216C34.8649 20.216 33.6009 19.928 32.4969 19.352C31.3929 18.776 30.5209 17.984 29.8809 16.976C29.2569 15.952 28.9449 14.784 28.9449 13.472C28.9449 12.16 29.2569 11 29.8809 9.992C30.5209 8.984 31.3929 8.2 32.4969 7.64C33.6009 7.064 34.8649 6.776 36.2889 6.776C37.7129 6.776 38.9769 7.064 40.0809 7.64C41.2009 8.2 42.0729 8.984 42.6969 9.992C43.3209 11 43.6329 12.16 43.6329 13.472C43.6329 14.784 43.3209 15.952 42.6969 16.976C42.0729 17.984 41.2009 18.776 40.0809 19.352C38.9769 19.928 37.7129 20.216 36.2889 20.216ZM36.2889 16.592C36.8169 16.592 37.2809 16.472 37.6809 16.232C38.0969 15.992 38.4249 15.64 38.6649 15.176C38.9049 14.696 39.0249 14.128 39.0249 13.472C39.0249 12.816 38.9049 12.264 38.6649 11.816C38.4249 11.352 38.0969 11 37.6809 10.76C37.2809 10.52 36.8169 10.4 36.2889 10.4C35.7769 10.4 35.3129 10.52 34.8969 10.76C34.4969 11 34.1689 11.352 33.9129 11.816C33.6729 12.264 33.5529 12.816 33.5529 13.472C33.5529 14.128 33.6729 14.696 33.9129 15.176C34.1689 15.64 34.4969 15.992 34.8969 16.232C35.3129 16.472 35.7769 16.592 36.2889 16.592ZM50.4733 20.216C49.3693 20.216 48.2893 20.088 47.2333 19.832C46.1933 19.576 45.3533 19.256 44.7133 18.872L46.0813 15.752C46.6893 16.12 47.4013 16.416 48.2173 16.64C49.0333 16.848 49.8333 16.952 50.6172 16.952C51.3853 16.952 51.9133 16.872 52.2013 16.712C52.5053 16.552 52.6573 16.336 52.6573 16.064C52.6573 15.808 52.5133 15.624 52.2253 15.512C51.9533 15.384 51.5853 15.288 51.1213 15.224C50.6733 15.16 50.1773 15.088 49.6333 15.008C49.0893 14.928 48.5373 14.824 47.9773 14.696C47.4333 14.552 46.9293 14.344 46.4653 14.072C46.0173 13.784 45.6573 13.4 45.3853 12.92C45.1133 12.44 44.9773 11.832 44.9773 11.096C44.9773 10.264 45.2173 9.528 45.6973 8.888C46.1933 8.232 46.9133 7.72 47.8573 7.352C48.8013 6.968 49.9533 6.776 51.3133 6.776C52.2253 6.776 53.1453 6.872 54.0733 7.064C55.0173 7.24 55.8093 7.512 56.4493 7.88L55.0813 10.976C54.4413 10.608 53.8013 10.36 53.1613 10.232C52.5213 10.088 51.9133 10.016 51.3372 10.016C50.5693 10.016 50.0253 10.104 49.7053 10.28C49.4013 10.456 49.2493 10.672 49.2493 10.928C49.2493 11.184 49.3853 11.384 49.6573 11.528C49.9293 11.656 50.2893 11.76 50.7373 11.84C51.2013 11.904 51.7053 11.976 52.2493 12.056C52.7933 12.12 53.3373 12.224 53.8813 12.368C54.4413 12.512 54.9453 12.728 55.3933 13.016C55.8573 13.288 56.2253 13.664 56.4973 14.144C56.7693 14.608 56.9053 15.208 56.9053 15.944C56.9053 16.744 56.6573 17.464 56.1613 18.104C55.6813 18.744 54.9613 19.256 54.0013 19.64C53.0573 20.024 51.8813 20.216 50.4733 20.216ZM48.7453 5.432L45.6253 1.784H48.6493L52.0333 4.76H49.3933L52.7773 1.784H55.8013L52.6813 5.432H48.7453ZM71.3266 20.216C70.2706 20.216 69.3186 20.008 68.4706 19.592C67.6386 19.176 66.9826 18.528 66.5026 17.648C66.0386 16.752 65.8066 15.624 65.8066 14.264V6.992H70.3666V13.52C70.3666 14.528 70.5506 15.248 70.9186 15.68C71.3026 16.112 71.8386 16.328 72.5266 16.328C72.9746 16.328 73.3826 16.224 73.7506 16.016C74.1186 15.808 74.4146 15.48 74.6386 15.032C74.8626 14.568 74.9746 13.976 74.9746 13.256V6.992H79.5346V20H75.1906V16.328L76.0306 17.36C75.5826 18.32 74.9346 19.04 74.0866 19.52C73.2386 19.984 72.3186 20.216 71.3266 20.216ZM87.1998 20.216C86.0958 20.216 85.0158 20.088 83.9598 19.832C82.9198 19.576 82.0798 19.256 81.4398 18.872L82.8078 15.752C83.4158 16.12 84.1278 16.416 84.9438 16.64C85.7598 16.848 86.5598 16.952 87.3438 16.952C88.1118 16.952 88.6398 16.872 88.9278 16.712C89.2318 16.552 89.3838 16.336 89.3838 16.064C89.3838 15.808 89.2398 15.624 88.9518 15.512C88.6798 15.384 88.3118 15.288 87.8478 15.224C87.3998 15.16 86.9038 15.088 86.3598 15.008C85.8158 14.928 85.2638 14.824 84.7038 14.696C84.1598 14.552 83.6558 14.344 83.1918 14.072C82.7438 13.784 82.3838 13.4 82.1118 12.92C81.8398 12.44 81.7038 11.832 81.7038 11.096C81.7038 10.264 81.9438 9.528 82.4238 8.888C82.9198 8.232 83.6398 7.72 84.5838 7.352C85.5278 6.968 86.6798 6.776 88.0398 6.776C88.9518 6.776 89.8718 6.872 90.7998 7.064C91.7438 7.24 92.5358 7.512 93.1758 7.88L91.8078 10.976C91.1678 10.608 90.5278 10.36 89.8878 10.232C89.2478 10.088 88.6398 10.016 88.0638 10.016C87.2958 10.016 86.7518 10.104 86.4318 10.28C86.1278 10.456 85.9758 10.672 85.9758 10.928C85.9758 11.184 86.1118 11.384 86.3838 11.528C86.6558 11.656 87.0158 11.76 87.4638 11.84C87.9278 11.904 88.4318 11.976 88.9758 12.056C89.5198 12.12 90.0638 12.224 90.6078 12.368C91.1678 12.512 91.6718 12.728 92.1198 13.016C92.5838 13.288 92.9518 13.664 93.2238 14.144C93.4958 14.608 93.6318 15.208 93.6318 15.944C93.6318 16.744 93.3838 17.464 92.8878 18.104C92.4078 18.744 91.6878 19.256 90.7278 19.64C89.7838 20.024 88.6078 20.216 87.1998 20.216ZM99.3888 17.6L99.5088 12.152L104.813 6.992H110.213L104.333 13.064L102.005 14.936L99.3888 17.6ZM95.5968 20V2.192H100.157V20H95.5968ZM105.149 20L101.165 15.008L103.997 11.504L110.669 20H105.149ZM118.015 20.216C116.591 20.216 115.327 19.928 114.223 19.352C113.119 18.776 112.247 17.984 111.607 16.976C110.983 15.952 110.671 14.784 110.671 13.472C110.671 12.16 110.983 11 111.607 9.992C112.247 8.984 113.119 8.2 114.223 7.64C115.327 7.064 116.591 6.776 118.015 6.776C119.439 6.776 120.703 7.064 121.807 7.64C122.927 8.2 123.799 8.984 124.423 9.992C125.047 11 125.359 12.16 125.359 13.472C125.359 14.784 125.047 15.952 124.423 16.976C123.799 17.984 122.927 18.776 121.807 19.352C120.703 19.928 119.439 20.216 118.015 20.216ZM118.015 16.592C118.543 16.592 119.007 16.472 119.407 16.232C119.823 15.992 120.151 15.64 120.391 15.176C120.631 14.696 120.751 14.128 120.751 13.472C120.751 12.816 120.631 12.264 120.391 11.816C120.151 11.352 119.823 11 119.407 10.76C119.007 10.52 118.543 10.4 118.015 10.4C117.503 10.4 117.039 10.52 116.623 10.76C116.223 11 115.895 11.352 115.639 11.816C115.399 12.264 115.279 12.816 115.279 13.472C115.279 14.128 115.399 14.696 115.639 15.176C115.895 15.64 116.223 15.992 116.623 16.232C117.039 16.472 117.503 16.592 118.015 16.592ZM127.472 20V6.992H131.816V10.784L131.168 9.704C131.552 8.728 132.176 8 133.04 7.52C133.904 7.024 134.952 6.776 136.184 6.776V10.88C135.976 10.848 135.792 10.832 135.632 10.832C135.488 10.816 135.328 10.808 135.152 10.808C134.224 10.808 133.472 11.064 132.896 11.576C132.32 12.072 132.032 12.888 132.032 14.024V20H127.472ZM144.476 20.216C143.052 20.216 141.788 19.928 140.684 19.352C139.58 18.776 138.708 17.984 138.068 16.976C137.444 15.952 137.132 14.784 137.132 13.472C137.132 12.16 137.444 11 138.068 9.992C138.708 8.984 139.58 8.2 140.684 7.64C141.788 7.064 143.052 6.776 144.476 6.776C145.9 6.776 147.164 7.064 148.268 7.64C149.388 8.2 150.26 8.984 150.884 9.992C151.508 11 151.82 12.16 151.82 13.472C151.82 14.784 151.508 15.952 150.884 16.976C150.26 17.984 149.388 18.776 148.268 19.352C147.164 19.928 145.9 20.216 144.476 20.216ZM144.476 16.592C145.004 16.592 145.468 16.472 145.868 16.232C146.284 15.992 146.612 15.64 146.852 15.176C147.092 14.696 147.212 14.128 147.212 13.472C147.212 12.816 147.092 12.264 146.852 11.816C146.612 11.352 146.284 11 145.868 10.76C145.468 10.52 145.004 10.4 144.476 10.4C143.964 10.4 143.5 10.52 143.084 10.76C142.684 11 142.356 11.352 142.1 11.816C141.86 12.264 141.74 12.816 141.74 13.472C141.74 14.128 141.86 14.696 142.1 15.176C142.356 15.64 142.684 15.992 143.084 16.232C143.5 16.472 143.964 16.592 144.476 16.592ZM155.782 20.216C155.014 20.216 154.366 19.96 153.838 19.448C153.31 18.936 153.046 18.288 153.046 17.504C153.046 16.688 153.31 16.04 153.838 15.56C154.366 15.064 155.014 14.816 155.782 14.816C156.55 14.816 157.198 15.064 157.726 15.56C158.254 16.04 158.518 16.688 158.518 17.504C158.518 18.288 158.254 18.936 157.726 19.448C157.198 19.96 156.55 20.216 155.782 20.216ZM162.579 20.216C161.811 20.216 161.163 19.96 160.635 19.448C160.107 18.936 159.843 18.288 159.843 17.504C159.843 16.688 160.107 16.04 160.635 15.56C161.163 15.064 161.811 14.816 162.579 14.816C163.347 14.816 163.995 15.064 164.523 15.56C165.051 16.04 165.315 16.688 165.315 17.504C165.315 18.288 165.051 18.936 164.523 19.448C163.995 19.96 163.347 20.216 162.579 20.216ZM169.376 20.216C168.608 20.216 167.96 19.96 167.432 19.448C166.904 18.936 166.64 18.288 166.64 17.504C166.64 16.688 166.904 16.04 167.432 15.56C167.96 15.064 168.608 14.816 169.376 14.816C170.144 14.816 170.792 15.064 171.32 15.56C171.848 16.04 172.112 16.688 172.112 17.504C172.112 18.288 171.848 18.936 171.32 19.448C170.792 19.96 170.144 20.216 169.376 20.216Z" fill="white"/>
</svg>
