<?xml version="1.0" encoding="UTF-8"?>
<svg xmlns="http://www.w3.org/2000/svg" viewBox="0 0 691.35 173.9">
  <defs>
    <style>
      .cls-1 {
        fill: #f9f9f9;
        isolation: isolate;
        opacity: .91;
      }
    </style>
  </defs>
  <g id="Layer_1" data-name="Layer 1"/>
  <g id="Layer_2" data-name="Layer 2">
    <g id="Layer_1-2" data-name="Layer 1">
      <path class="cls-1" d="M339.63,165.48c220.99,.41,345.59,20.81,351.48-3.42,4.38-17.8-52.44-50.93-90.51-44.36-25.06,4.38-46.28,11.64-69.97,11.91-23.41,.27-10-27.25-52.85-49.43-32.04-16.57-54.63-2.19-73.39-17.12-27.25-21.63-15.88-32.18-40.94-49.43C337.44-4.44,305.54,.08,293.49,1.72c-13.83,1.92-42.03,5.89-59.7,27.25-17.39,21.09-7.94,38.75-23.82,49.43-16.98,11.36-31.36-5.89-59.7,3.42-21.22,6.98-17.66,18.07-42.72,30.67-26.29,13.28-37.24,4.38-66.54,17.12C28.41,135.09-1.58,150.42,.06,160.28c3.42,20.67,142.67,4.79,339.57,5.2Z"/>
    </g>
  </g>
</svg>