<?xml version="1.0" encoding="UTF-8"?>
<svg xmlns="http://www.w3.org/2000/svg" viewBox="0 0 789.75 198.75">
  <defs>
    <style>
      .cls-1 {
        fill: #f9f9f9;
        isolation: isolate;
        opacity: .91;
      }
    </style>
  </defs>
  <g id="Layer_1" data-name="Layer 1"/>
  <g id="Layer_2" data-name="Layer 2">
    <g id="Layer_1-2" data-name="Layer 1">
      <path class="cls-1" d="M401.74,189.08c-252.33,.48-394.7,23.86-401.47-3.87-5-20.32,59.82-58.21,103.35-50.63,28.7,5,52.88,13.38,79.97,13.7,26.76,.32,11.45-31.12,60.46-56.59,36.6-18.86,62.4-2.42,83.84-19.51,31.12-24.83,18.22-36.76,46.76-56.59C404.48-5.04,440.92,.12,454.63,1.89c15.8,2.26,47.89,6.61,68.2,31.12,19.99,24.18,9.03,44.34,27.25,56.59,19.35,12.9,35.96-6.77,68.2,3.87,24.18,7.9,20.15,20.64,48.69,35.15,29.99,15.16,42.57,5.16,75.94,19.51,14.35,6.13,48.69,23.86,46.76,35.15-4.03,23.54-163.17,5.48-387.93,5.8Z"/>
    </g>
  </g>
</svg>