<?xml version="1.0" encoding="UTF-8"?>
<svg xmlns="http://www.w3.org/2000/svg" viewBox="0 0 789.75 198.75">
  <defs>
    <style>
      .cls-1 {
        fill: #f9f9f9;
        isolation: isolate;
        opacity: .91;
      }
    </style>
  </defs>
  <g id="Layer_1" data-name="Layer 1"/>
  <g id="Layer_2" data-name="Layer 2">
    <g id="Layer_1-2" data-name="Layer 1">
      <path class="cls-1" d="M.08,183.28c-1.93-11.29,32.41-29.02,46.76-35.15,33.38-14.35,45.95-4.35,75.94-19.51,28.54-14.51,24.51-27.25,48.69-35.15,32.25-10.64,48.85,9.03,68.2-3.87,18.22-12.25,7.26-32.41,27.25-56.59,20.32-24.51,52.4-28.86,68.2-31.12,13.7-1.77,50.14-6.93,79.97,13.7,28.54,19.83,15.64,31.76,46.76,56.59,21.44,17.09,47.24,.65,83.84,19.51,49.01,25.47,33.7,56.92,60.46,56.59,27.09-.32,51.27-8.71,79.97-13.7,43.53-7.58,108.35,30.31,103.35,50.63-6.77,27.73-149.14,4.35-401.47,3.87C163.25,188.76,4.11,206.82,.08,183.28Z"/>
    </g>
  </g>
</svg>