<?xml version="1.0" encoding="UTF-8"?>
<svg xmlns="http://www.w3.org/2000/svg" viewBox="0 0 708.07 822.9" preserveAspectRatio="none">
  <defs>
    <style>
      .cls-1 {
        fill: #ff6c1f;
      }
    </style>
  </defs>
  <g id="Layer_1" data-name="Layer 1"/>
  <g id="Layer_2" data-name="Layer 2">
    <g id="Layer_1-2" data-name="Layer 1">
      <path class="cls-1" d="M0,0V822.9H708.07V0H0ZM676.15,538.87c-5.38,45.21-17.29,43.61-19.87,81.57-3.36,49.43,16.1,62.9,7.95,95.97-7.36,29.85-31.83,53.85-55.64,62.38-50.9,18.23-75.59-42.59-139.11-33.59-43.75,6.2-43.57,36.69-83.46,38.39-56.59,2.4-65.88-58.55-123.21-62.38-47.23-3.15-55.42,37.25-127.18,43.19-25.06,2.07-61.74,5.11-75.52-19.19-12.18-21.49-29.55-74.95,19.87-115.16,18.88-15.36-28.81-130.52,15.9-172.74,26.89-25.39,4.97-75.34-31.8-115.16-50.2-54.38-32.42-96.54-23.85-119.96,9.44-25.79,19.9-57.85,67.57-52.78,58.62,6.23,52.5-87.79,91.41-100.77,40.39-13.46,55.32,26.61,111.29,14.4,25.86-5.64,18.55-13.3,63.59-28.79,0,0,48.83-16.79,97.47-14.53,.86,.04,1.34,.07,1.89,.13,20.85,2.28,27.27,29.79,39.74,38.39,23.95,16.51,57.3-45.64,91.41-38.39,32.41,6.89,55.87,74.39,59.62,129.56,6.64,97.63-49.3,143.86-23.85,211.13,8.64,22.82,17.97,25.16,27.82,57.58,12.43,40.92,10.46,79.64,7.95,100.77Z"/>
    </g>
  </g>
</svg>