<?xml version="1.0" encoding="UTF-8"?>
<svg xmlns="http://www.w3.org/2000/svg" viewBox="0 0 708.07 822.9" preserveAspectRatio="none">
  <defs>
    <style>
      .cls-1 {
        fill: #ff6c1f;
      }
    </style>
  </defs>
  <g id="Layer_1" data-name="Layer 1"/>
  <g id="Layer_2" data-name="Layer 2">
    <g id="Layer_1-2" data-name="Layer 1">
      <path class="cls-1" d="M0,0V822.9H708.07V0H0ZM670.68,587.59c-2.62,9.11-5.47,22.33-11.22,29.7-3.82,4.9-9.46,7.57-13.15,12.82-5.34,7.59-8.73,16.56-11.06,25.49-3.43,13.16-4.68,26.78-7.34,40.11-2.66,13.33-6.91,26.73-15.42,37.33s-21.98,17.99-35.48,16.31c-11.71-1.45-21.87-9.29-33.57-10.86-5.09-.68-10.3,.01-15.11,1.79-13.85,5.12-15.77,20.73-30.06,22.9-10.4,1.58-20.29-.86-29.9-4.74-24.1-9.74-44.43-18.24-71.09-12.25-25.62,5.75-18.38,13.56-63,29.34,0,0-48.38,17.12-96.56,14.81-.86-.04-1.32-.07-1.87-.14-20.65-2.32-27.02-30.36-39.37-39.12-23.73-16.83-56.77,46.52-90.56,39.12-32.11-7.02-55.34-75.82-59.06-132.05-6.58-99.51,48.84-146.62,23.62-215.19-8.55-23.26-17.8-25.64-27.56-58.69-12.32-41.7-10.37-81.17-7.88-102.7,5.33-46.08,17.13-44.45,19.69-83.14,3.33-50.38-15.95-64.1-7.87-97.81,7.29-30.42,31.54-54.89,55.12-63.58,50.43-18.58,74.88,43.41,137.81,34.23,43.34-6.32,43.16-37.4,82.69-39.12,56.06-2.45,65.27,59.68,122.06,63.58,46.79,3.21,54.91-37.96,126-44.02,24.82-2.11,61.16-5.21,74.81,19.56,12.07,21.9,29.27,76.39-19.69,117.37-18.7,15.66,28.55,133.03-15.75,176.06-26.64,25.88-4.92,76.79,31.5,117.37,9.97,11.11,18.81,23.42,24.96,37.07,9.89,21.93,10.91,45.46,4.3,68.43Z"/>
    </g>
  </g>
</svg>