<?xml version="1.0" encoding="UTF-8"?>
<svg xmlns="http://www.w3.org/2000/svg" viewBox="0 0 708.07 822.9" preserveAspectRatio="none">
  <defs>
    <style>
      .cls-1 {
        fill: #ff6c1f;
      }
    </style>
  </defs>
  <g id="Layer_1" data-name="Layer 1"/>
  <g id="Layer_2" data-name="Layer 2">
    <g id="Layer_1-2" data-name="Layer 1">
      <path class="cls-1" d="M0,0V822.9H708.07V0H0ZM653.69,709.39c-16.94,32.71-44.58,47.26-51.01,50.45-34.96,17.36-69.69,10.39-90.01,6.31-42.57-8.55-48.12-25.08-78.01-22.07-24.73,2.49-25.34,14.25-57.01,22.07-30.52,7.53-36.71-1.73-78.01,0-59.33,2.48-73.05,22.7-93.01,9.46-24.87-16.5-11.06-52.85-36-69.36-28.62-18.95-62.57,18.43-87.01,0-20.66-15.57-21.19-60.97-9-91.43,12.33-30.81,32.1-32.44,33-53.6,1.25-29.19-36-34.77-48-72.52-11.93-37.5,18.12-53.14,21-110.35,2.24-44.39-15.28-46.32-30-122.96-11.02-57.36-18.18-94.63,0-132.42,13.68-28.44,43.81-61.52,78.01-63.06,19.01-.85,22.21,8.81,42,6.31,34.21-4.33,40.45-35.22,66.01-35.09,23.06,.11,23.41,25.29,54.01,35.09,17.4,5.58,40.6-.49,87.01-12.61,36.46-9.52,45.4-14.91,60.01-9.46,22.62,8.45,20.36,28.52,39,34.68,30.78,10.17,51.97-39.61,90.01-34.68,34.8,4.51,54.65,51.03,57.01,56.75,10.2,24.74,5.1,38.85,6,75.67,1.62,66.59,19.42,66.87,24,135.57,3.68,55.26-4.52,104.83-6,113.5-7.73,45.27-17.85,64.77-12,100.89,4.47,27.62,11.95,25.88,21,59.9,7.34,27.6,20.59,77.4-3,122.96Z"/>
    </g>
  </g>
</svg>