<?xml version="1.0" encoding="UTF-8"?>
<svg xmlns="http://www.w3.org/2000/svg" viewBox="0 0 552.2 646.75">
  <defs>
    <style>
      .cls-1 {
        fill: #fdfdfd;
      }

      .cls-2 {
        fill: #ebab32;
      }
    </style>
  </defs>
  <g id="Layer_1" data-name="Layer 1"/>
  <g id="Layer_2" data-name="Layer 2">
    <g id="Layer_1-2" data-name="Layer 1">
      <g>
        <path class="cls-1" d="M346.22,98.01c9.4,4.2,17.5,10.6,26,16.1,13.7,14,24.6,30.3,36.6,45.7,15.7,20.1,38.7,27.5,63.8,28.1,22.9,.6,45.5-.2,64.5-15.7,2.9-2.4,6.4-2.5,9.2,.4,2.6,2.7,3.6,6,.9,9.1-5.5,6.4-2.8,12.4,1.6,17.3,4.8,5.3,4.5,9.1-1,13.3-4.3,3.3-5.5,6.6-1.9,12,5,7.6,5.5,16.4,3,27.1-12.4-15.9-30.7-17.5-46.4-24.4-7.5-3.3-13.5-.4-19.1,3.9-5.5,4.3-5.8,10.5-3.8,16.7,6.6,20,11.6,40.2,11.4,61.5-.2,26-2.4,50.9-20,72.6-12.4,15.3-9.4,28.7,6.1,40.9,7.2,5.7,11.7,11.7,8.4,21.6-2.8,8.4,2.3,13.8,8.4,18.8,13.5,11.2,13.6,11.4,7.5,27.6-2.6,6.9,1.6,11.7,3.8,17.1,3.4,8.2,6.1,15.1-4.4,21.4-7.2,4.3-4.6,12.5-.9,19.1,2.5,4.4,5.1,8.7,7.5,13.2,1.9,3.6,1.8,7.2-1.4,10.2-3.2,2.9-7,2.3-10.2,.4-3.7-2.2-6.9-6.8-11.5-3.3-4.8,3.7-2.7,9.1-1.7,14,1,5.1,3.5,9.4,5.9,13.9,3.1,5.9,4,12.5-2.7,15.9-6.7,3.4-11.4-.9-14.1-7.3-.8-2-.7-5.3-3.9-5-2.6,.2-3.5,2.9-4.7,4.9-2.7,4.7-3.9,10-5,15.3-2.1,10.8-7.6,19.6-17.7,24.6-4,2-8.5,2.8-12.4-.5-4.4-3.7-2.4-7.7-.8-11.9,6.3-16.8,12.2-33.7,13-51.8,1.8-37.1-16.2-64.6-43.1-87.7-14.2-12.2-27.1-25.6-38-40.7-23-31.8-24.9-66.3-10-101.9,5.6-13.4,10.6-27,14.9-40.9,9.2-30-9-65.6-52.2-52-9.6,3-19.1,3.3-28.1-2.2h-.1c-1.9-9.6,2.1-15.8,10.6-20,6-3,12-6.3,17.3-10.4,10.7-8.3,10.9-15.5,2.1-25.6-9.7-11.1-22.6-15.6-36.4-18.1-16-2.8-32.2-3.6-48.4-4.4-5.5-1.7-11.1-3.1-17-2.2-15-2-28.8-6.9-40-17.6-15.2-17.8-27.1-37.6-38.5-58-16.3-29.2-41.3-48.8-73.3-59-16.4-5.2-32.8-10.5-49.2-15.8C6.12,22.81-.38,21.71,.02,15.61,.42,10.01,5.72,6.61,11.22,5.31c16.4-4,32.8-3.3,49.1,.8,5.9,1.5,11.6,3.7,17.4,5.6,3.3,1.1,6.1,1.5,9-1.8,9.1-10.5,21.2-11.2,31.6-2.4,1.3,1.1,2.4,2.4,3.8,3.4,10.7,8.2,19.2,7.3,28.2-2.8,10-11.3,13.8-10.9,21.2,1.9,3.4,5.9,7.9,10.8,15.5,8,10.7-3.9,16.1,2.7,18.2,10.7,3,11.3,10,11.5,18.6,9.7,17.5-3.6,20.1-2.2,24.6,15.5,3.1,12,6.3,23.9,20.4,27.6,8.9,5.9,19.3,6.1,29.3,6.3,16.6,.6,32.6,3.9,48.1,10.2Z"/>
        <path class="cls-2" d="M283.52,255.81c-10,9.4-22.6,5.2-33.8,8.6-.5-1.2-.9-2.3-1.4-3.5,9.3-5.3,18.5-10.8,27.9-15.7,2.9-1.6,4,1,4.2,3.7,.1,2.7-1.7,6.2,3.1,6.9-.1,0,0,0,0,0Z"/>
      </g>
    </g>
  </g>
</svg>