<?xml version="1.0" encoding="UTF-8"?>
<svg xmlns="http://www.w3.org/2000/svg" viewBox="0 0 797 617">
  <defs>
    <style>
      .cls-1 {
        fill: #d1a983;
      }

      .cls-2 {
        fill: #ddc0a5;
      }
    </style>
  </defs>
  <g id="Layer_1" data-name="Layer 1"/>
  <g id="Layer_2" data-name="Layer 2">
    <g id="Layer_1-2" data-name="Layer 1">
      <g>
        <g>
          <path class="cls-2" d="M1.6,109.6l201,19.5,69.9,12.1c5.3,.9,10.8,.8,16.1-.4l40-8.8,12.4,.9,28.1-32.4,31.5-21,24-27,34.5-24,30-16.5L507.1,0l7.9,.9V8.9l-4,13-21,16-25,19,35.5-15,28.5-5.5,24.5-8,20.5-9,9-2,6,5.5,2.5,9-18,10-23,5.5-24.5,4.5-26.5,6,76-12.5,20-7.5,13.5-8,7.5,5.5,1,8-5.5,11-10,7-11.5,4-28.5,2.5-27.5,9-27.5,5.5,95-19,15-6.5,14-6,10.5,5-3.5,14.5-13.5,11.5-29,10.5-42,19-33.5,11-23,20.5-6.5,14.5,31-3.5,14-9.5,20-4,16,1.5,10,4,1.5,15.5-12,10-17.5,8.5-19,3-15.5,5.5-30,16-30,12.5-38,8.5-17.5-6-17-7-42-.5-69.5,1-162,25L0,249.9,1.6,109.6Z"/>
          <path class="cls-1" d="M5,155l192,26,128,7,33,13,49,3,14,10v11.5s-6-15.5-34.5-13l-28.5,2.5-131-1-166,27L0,250l5-95Z"/>
          <polygon class="cls-1" points="501 129 488 120 488 105 498 95 529 89 559 84 573 78 595 78 615 78 621 80 582 93 555 105 529 115 501 129"/>
        </g>
        <g>
          <polygon class="cls-2" points="9 445 79 440 143 406 209 383 310 360 407 335 461 315 483 302 501 263 513 237 530 220 560 213 585 202 600 198 611 201 615 208 611 219 588 226 566 238 593 238 624 224 656 208 668 197 685 195 727 173 741 174 751 186 749 198 719 215 684 230 647 252 667 252 702 237 730 230 762 220 790 216 797 223 797 232 794 246 765 253 719 261 687 276 669 287 704 276 734 268 758 267 788 262 793 272 793 281 783 287 749 299 693 309 670 328 695 326 714 324 724 325 748 314 770 310 776 328 766 334 742 347 710 362 691 362 658 373 612 399 565 406 536 406 497 421 390 474 266 531 139 595 76 607 6 617 9 445"/>
          <polygon class="cls-1" points="32 446 97 440 185 397 335 409 537 362 525 402 401 467 195 551 129 583 17 593 32 446"/>
        </g>
      </g>
    </g>
  </g>
</svg>