<?xml version="1.0" encoding="UTF-8"?>
<svg xmlns="http://www.w3.org/2000/svg" viewBox="0 0 1573 907.6">
  <defs>
    <style>
      .cls-1 {
        fill: #f2c91d;
      }

      .cls-2 {
        fill: #ff6c1f;
      }

      .cls-3 {
        fill: #5057e2;
      }

      .cls-4 {
        fill: #ddc0a5;
      }

      .cls-5 {
        fill: #3a4384;
      }
    </style>
  </defs>
  <g id="Layer_1" data-name="Layer 1"/>
  <g id="Layer_2" data-name="Layer 2">
    <g id="Layer_1-2" data-name="Layer 1">
      <g>
        <polyline class="cls-1" points="757.7 231.4 679 231.4 744 96.8 1104.1 0 1382.4 36.3 1507.9 270.8 1573 487.1 1527.6 717 1329.4 844 1170.6 907.6 1098 866.7"/>
        <g>
          <g>
            <polyline class="cls-4" points="0 859.8 116 751 203.8 730 330 726.3 438.9 748.6 557.6 768.4 618.2 773.3 703.6 782 644.2 741.1 640.5 688 639.3 595.2 639.3 462.8 659 407.1 682.5 393.5 681.3 341.6 697.4 319.3 745.6 293.3 781.5 274.8 792.6 238.9 766.7 235.2 782.8 196.8 837.2 154.8 922.5 123.9 1016.6 120.1 1097 153.5 1148.9 225.3 1189.7 302 1214.5 366.3 1198.4 438.1 1212 490 1256.5 518.5 1302.3 504.9 1329.5 532.1 1329.5 568 1325.8 602.6 1303.5 632.3 1280 657 1240.5 681.8 1189.7 680.5 1158.8 662 1152.6 655.8 1200.9 690.4 1157.6 754.8 1104.4 850 1092 868.6 57.8 867.3 0 859.8"/>
            <g>
              <polygon class="cls-5" points="660.3 401 644.2 386.1 614.5 386.1 596 373.7 599.7 345.3 599.7 325.5 618.2 302 649.1 262.4 678.8 240.1 725.8 232.7 753.1 245.1 763 246.3 780.3 238.9 802.5 236.4 829.8 219.1 876.8 187 932.4 168.4 1010.4 168.4 1080.9 191.9 1097 222.8 1119.2 245.1 1165 309.4 1210.8 371.3 1256.5 426.9 1247.9 448 1089.5 259.9 1035.1 305.7 949.8 329.2 876.8 345.3 828.5 332.9 802.5 313.1 788.9 285.9 787.7 268.6 767.9 268.6 764.2 283.4 701.1 308.2 678.8 336.6 677.6 375 657.8 382.4 682.5 393.5 660.3 401"/>
              <polygon class="cls-3" points="619.5 328 634.3 298.3 659 273.5 693.7 252.5 727.1 255 746.9 267.4 741.9 287.2 685 320.6 673.9 355.2 646.7 367.6 624.4 367.6 613.3 356.4 619.5 328"/>
              <polygon class="cls-3" points="828.5 246.3 870.6 212.9 930 193.1 998 191.9 1032.6 208 1036.3 241.4 1019 272.3 974.5 298.3 916.4 315.6 858.2 316.8 822.3 298.3 818.6 271.1 828.5 246.3"/>
            </g>
          </g>
          <path class="cls-2" d="M821.5,523l-45.4-48.7-45.4-18.1-24.7,4.9h-22.3l-21.4,21.4-15.7,27.2-4.9,75,10.7,21.4,31.3-6.6,26.4-3.3,37.9-14,89.9-18.1-16.4-41.1Zm-33.8,26.4l-34.6-.8h-35.5l-30.5,9.9h-25.6l-15.7,14.8,34.6-53.6,20.6-11.5,33.8-7.4,31.3,5.8,35.5,22.3,14.8,23.9-28.7-3.4Z"/>
        </g>
      </g>
    </g>
  </g>
</svg>